<?xml version="1.0" encoding="utf-8"?>
<!-- Generator: Adobe Illustrator 26.0.3, SVG Export Plug-In . SVG Version: 6.00 Build 0)  -->
<svg version="1.1" id="Layer_1" xmlns="http://www.w3.org/2000/svg" xmlns:xlink="http://www.w3.org/1999/xlink" x="0px" y="0px"
	 viewBox="0 0 597.1 150" style="enable-background:new 0 0 597.1 150;" xml:space="preserve">
<style type="text/css">
	.st0{fill:#FFFFFF;}
</style>
<g>
	<path class="st0" d="M511.6,30c-24.9,0-45,20.1-45,45c0,24.9,20.1,45,45,45c24.9,0,45-20.1,45-45C556.6,50.1,536.4,30,511.6,30z
		 M529.2,93.3c-4.7,4.8-10.6,7.3-17.6,7.3c-7,0-12.9-2.4-17.6-7.3c-4.7-4.8-7.1-10.9-7.1-18.2c0-7.4,2.4-13.5,7.1-18.4
		c4.7-4.9,10.6-7.3,17.6-7.3c7,0,12.9,2.4,17.6,7.3c4.7,4.9,7.1,11,7.1,18.4C536.3,82.4,533.9,88.5,529.2,93.3z"/>
	<path class="st0" d="M561.1,31.8v20.6h15.4v65.8h20.6V31.8H561.1z"/>
	<path class="st0" d="M421.6,31.8v20.6H437v65.8h20.6V31.8H421.6z"/>
	<path class="st0" d="M199.4,31.8l-36.1,86.4h22.8l6.1-15.7h36.4l6.1,15.7h22.7l-36.1-86.4H199.4z M199.4,84.2l11-28.4l11.1,28.4
		H199.4z"/>
	<path class="st0" d="M306.8,67l-17.9-4c-4.6-1-6.9-3.4-6.9-7.2c0-2.5,1.1-4.6,3.2-6.2s4.9-2.5,8.4-2.5c3.6,0,6.8,1.1,9.6,3.1
		c2.8,2.1,4.6,5.1,5.4,8.9l20.8-4.2c-1.6-7.8-5.6-13.9-12-18.3c-6.3-4.4-14.2-6.6-23.7-6.6c-10.2,0-18.4,2.4-24.7,7.3
		c-6.3,4.9-9.4,11.5-9.4,19.8c0,13.1,7.7,21.4,23.1,24.9l18,3.9c3,0.6,5.1,1.5,6.2,2.7c1.2,1.2,1.7,2.8,1.7,4.9
		c0,2.7-1.1,4.8-3.4,6.4c-2.3,1.6-5.4,2.4-9.3,2.4c-9.3,0-14.9-4.2-17-12.7l-21.9,4.2c1.1,8.2,5.2,14.6,12.1,19.2
		c7,4.6,15.5,6.9,25.5,6.9c10.1,0,18.6-2.4,25.3-7.3c6.8-4.9,10.2-11.7,10.2-20.6C330.4,78.9,322.5,70.5,306.8,67z"/>
	<path class="st0" d="M388.9,67l-17.9-4c-4.6-1-6.9-3.4-6.9-7.2c0-2.5,1.1-4.6,3.2-6.2s4.9-2.5,8.4-2.5c3.6,0,6.8,1.1,9.6,3.1
		c2.8,2.1,4.6,5.1,5.4,8.9l20.8-4.2c-1.6-7.8-5.6-13.9-12-18.3c-6.3-4.4-14.2-6.6-23.7-6.6c-10.2,0-18.4,2.4-24.7,7.3
		c-6.3,4.9-9.4,11.5-9.4,19.8c0,13.1,7.7,21.4,23.1,24.9l18,3.9c3,0.6,5.1,1.5,6.2,2.7c1.2,1.2,1.7,2.8,1.7,4.9
		c0,2.7-1.1,4.8-3.4,6.4c-2.3,1.6-5.4,2.4-9.3,2.4c-9.3,0-14.9-4.2-17-12.7l-21.9,4.2c1.1,8.2,5.2,14.6,12.2,19.2
		c7,4.6,15.5,6.9,25.5,6.9c10.1,0,18.6-2.4,25.3-7.3c6.8-4.9,10.2-11.7,10.2-20.6C412.6,78.9,404.7,70.5,388.9,67z"/>
	<path class="st0" d="M60.2,95.9c-4,3.2-8.8,4.8-14.5,4.8c-6.9,0-12.7-2.5-17.4-7.4c-4.8-4.9-7.1-11-7.1-18.3s2.4-13.4,7.1-18.3
		c4.8-4.9,10.6-7.3,17.4-7.3c5.7,0,10.6,1.6,14.6,4.7c2.8,2.2,4.9,5.2,6.4,8.9h22.3C87,53,82,45,74,39c-8-6-17.4-9-28.2-9
		C33,30,22.2,34.4,13.3,43C4.4,51.7,0,62.4,0,75c0,12.7,4.4,23.4,13.3,32c8.9,8.6,19.7,13,32.5,13c11.2,0,20.8-3,28.7-9.1
		c7.9-6.1,12.8-14.4,14.8-25.1H67.1C65.6,90.1,63.3,93.4,60.2,95.9z"/>
	<path class="st0" d="M119.4,31.8H98.1v86.4h56.2l7.6-18.6h-42.6V31.8z"/>
</g>
</svg>
