<?xml version="1.0" encoding="utf-8"?>
<!-- Generator: Adobe Illustrator 26.0.2, SVG Export Plug-In . SVG Version: 6.00 Build 0)  -->
<svg version="1.1" id="Layer_1" xmlns="http://www.w3.org/2000/svg" xmlns:xlink="http://www.w3.org/1999/xlink" x="0px" y="0px"
	 viewBox="0 0 587.4 150" style="enable-background:new 0 0 587.4 150;" xml:space="preserve">
<style type="text/css">
	.st0{fill:url(#SVGID_1_);}
	.st1{fill:url(#SVGID_00000172439790113576223330000007040035259996009363_);}
	.st2{fill:#FFFFFF;}
</style>
<g>
	
		<radialGradient id="SVGID_1_" cx="-2274.0212" cy="-495.3717" r="64.9351" gradientTransform="matrix(1.212400e-16 -1.98 -1.84 -1.126675e-16 -877.5881 -4352.8906)" gradientUnits="userSpaceOnUse">
		<stop  offset="0" style="stop-color:#FFDD55"/>
		<stop  offset="0.1" style="stop-color:#FFDD55"/>
		<stop  offset="0.5" style="stop-color:#FF543E"/>
		<stop  offset="1" style="stop-color:#C837AB"/>
	</radialGradient>
	<path class="st0" d="M64.4,10c-27.1,0-35,0-36.6,0.2c-5.6,0.5-9,1.3-12.8,3.2c-2.8,1.3-5.3,3.1-7.6,5.3c-4,4.4-6.7,9.9-7.4,15.8
		c-0.2,3.2-0.5,3.8-0.5,19.3V75c0,27.1,0,35,0.2,36.6c0.5,5.4,1.3,8.9,3.1,12.6c3.5,7.1,10,12.4,17.6,14.5c3.1,0.6,6.3,1.2,9.3,1.2
		c1.7,0,18.1,0,34.5,0s32.7,0,34.4-0.1c3.2-0.1,6.6-0.5,9.7-1.3c7.8-1.9,14.3-7.3,17.8-14.5c1.8-3.9,2.8-8,3.1-12.3
		c0-1.1,0-18.9,0-36.8s0-35.7-0.1-36.8c-0.2-4.3-1.3-8.4-3.1-12.3c-1.3-3-3.2-5.4-5.6-7.7c-4.3-4.1-9.9-6.7-15.8-7.6
		c-3-0.4-3.7-0.6-19.3-0.6h-21V10z"/>
	
		<radialGradient id="SVGID_00000143597235322844245990000012708857956705106078_" cx="2934.9985" cy="138.6647" r="64.9351" gradientTransform="matrix(0.17 0.87 3.58 -0.72 -1019.9573 -2433.8308)" gradientUnits="userSpaceOnUse">
		<stop  offset="0" style="stop-color:#3771C8"/>
		<stop  offset="0.13" style="stop-color:#3771C8"/>
		<stop  offset="1" style="stop-color:#6600FF;stop-opacity:0"/>
	</radialGradient>
	<path style="fill:url(#SVGID_00000143597235322844245990000012708857956705106078_);" d="M64.4,10c-27.1,0-35,0-36.6,0.2
		c-5.6,0.5-9,1.3-12.8,3.2c-2.8,1.3-5.3,3.1-7.6,5.3c-4,4.4-6.7,9.9-7.4,15.8c-0.2,3.2-0.5,3.8-0.5,19.3V75c0,27.1,0,35,0.2,36.6
		c0.5,5.4,1.3,8.9,3.1,12.6c3.5,7.1,10,12.4,17.6,14.5c3.1,0.6,6.3,1.2,9.3,1.2c1.7,0,18.1,0,34.5,0s32.7,0,34.4-0.1
		c3.2-0.1,6.6-0.5,9.7-1.3c7.8-1.9,14.3-7.3,17.8-14.5c1.8-3.9,2.8-8,3.1-12.3c0-1.1,0-18.9,0-36.8s0-35.7-0.1-36.8
		c-0.2-4.3-1.3-8.4-3.1-12.3c-1.3-3-3.2-5.4-5.6-7.7c-4.3-4.1-9.9-6.7-15.8-7.6c-3-0.4-3.7-0.6-19.3-0.6h-21V10z"/>
	<path class="st2" d="M64.4,27c-13,0-14.7,0.1-19.7,0.2c-4,0.1-7.9,0.8-11.7,2.2c-6.4,2.5-11.5,7.6-14.1,14.1
		c-1.4,3.7-2.2,7.7-2.2,11.6c-0.2,5.2-0.2,6.9-0.2,19.9s0.1,14.7,0.2,19.7c0.1,4,0.8,7.9,2.2,11.7c2.5,6.4,7.6,11.5,14.1,14.1
		c3.7,1.4,7.7,2.2,11.6,2.2c5.1,0.2,6.7,0.2,19.7,0.2s14.7-0.1,19.7-0.2c4-0.1,7.9-0.8,11.7-2.2c6.4-2.5,11.5-7.6,14.1-14.1
		c1.4-3.7,2.1-7.7,2.2-11.7c0.2-5.1,0.2-6.7,0.2-19.7s-0.1-14.7-0.2-19.7c-0.1-4-0.8-7.9-2.2-11.7c-1.2-3.2-3.1-6.1-5.4-8.4
		c-2.4-2.4-5.3-4.3-8.4-5.4c-3.7-1.4-7.7-2.2-11.7-2.2C79.2,27.3,77.4,27,64.4,27z M60.1,35.6h4.3c12.8,0,14.3,0,19.4,0.2
		c3,0,6.1,0.6,8.9,1.5c4.1,1.5,7.6,5,9.1,9.1c1.1,2.8,1.5,5.8,1.7,8.9c0.2,5.1,0.2,6.6,0.2,19.4s0,14.3-0.2,19.4
		c0,3-0.6,6.1-1.7,8.9c-1.5,4.1-5,7.6-9.1,9.1c-2.8,1.1-5.8,1.5-8.9,1.7c-5.1,0.2-6.6,0.2-19.4,0.2s-14.3,0-19.4-0.2
		c-3,0-6.1-0.6-8.9-1.7c-4.1-1.5-7.6-5-9.1-9.1c-1.1-2.8-1.5-5.8-1.5-8.9c-0.2-5.1-0.2-6.6-0.2-19.4s0-14.3,0.2-19.4
		c0-3,0.6-6.1,1.5-8.9c1.5-4.1,5-7.6,9.1-9.1c2.8-1.1,5.8-1.5,8.9-1.5C49.5,35.8,51.1,35.6,60.1,35.6L60.1,35.6z M90,43.7
		c-3.2,0-5.8,2.6-5.8,5.8s2.6,5.8,5.8,5.8c3.2,0,5.8-2.6,5.8-5.8S93.2,43.7,90,43.7L90,43.7z M64.4,50.3c-13.6,0-24.6,11-24.6,24.7
		s10.9,24.7,24.6,24.7S89.1,88.6,89.1,75S78.1,50.3,64.4,50.3L64.4,50.3z M64.4,59c8.9,0,16,7.1,16,16s-7.1,16-16,16s-16-7.1-16-16
		S55.6,59,64.4,59z"/>
	<path class="st2" d="M168.7,24.8c-8.9,3.8-19,14.5-22,27.7c-4,17,12.5,24.1,13.8,21.7c1.5-2.8-2.9-3.8-3.9-12.5
		c-1.1-11.3,4-24.1,10.7-29.7c1.3-1.1,1.1,0.4,1.1,3.1c0,4.7-0.3,47.5-0.3,56.5c0,12.1-0.4,15.9-1.4,19.7s-2.4,6.4-1.3,7.4
		c1.1,1,6.6-1.5,9.6-5.7c3.8-5,5-11.2,5.2-18c0.3-7.9,0.3-20.8,0.3-28c0-6.7,0.1-26.2-0.1-37.9C180.5,26.3,172.6,23.2,168.7,24.8
		 M488.7,81.4c-0.1,5-1.3,10-3.3,14.6c-3.3,6.7-10.2,8.8-13.1-0.8c-1.5-5.3-1.7-14.1-0.4-21.3c1.1-7.2,4.5-13.1,9.9-12.5
		C486.8,61.7,489.3,68.5,488.7,81.4L488.7,81.4z M398.4,120.2c-0.1,10.5-1.8,19.7-5.3,22.3c-5,3.8-11.7,1-10.3-6.7
		c1.3-6.7,7-13.7,15.6-22L398.4,120.2L398.4,120.2z M397.1,81.2c-0.1,5-1.4,10-3.3,14.8c-3.3,6.7-10.3,8.8-13.1-0.8
		c-2-6.7-1.4-15.1-0.4-20.5c1.3-7,4.3-13.5,9.9-13.5C395.2,61.3,397.8,67.1,397.1,81.2L397.1,81.2z M344.9,81.2
		c-0.3,6-1.4,11.2-3.3,14.8c-3.3,6.7-10.2,8.8-13.1-0.8c-2.1-7-1.4-16.4-0.4-21.5c1.4-7.7,4.7-13,9.9-12.5
		C342.9,61.7,345.6,68.7,344.9,81.2L344.9,81.2z M584.4,88.3c-1.3,0-2,1.4-2.4,3.6c-1.8,7.9-3.5,9.6-5.9,9.6
		c-2.6,0-4.9-3.9-5.6-11.7c-0.4-9.6-0.4-19.1,0.1-28.7c0.1-2.4-0.4-4.6-6.7-6.8c-2.6-1-6.6-2.4-8.5,2.2c-5.4,13.1-7.7,23.6-8.1,27.9
		c0,0.1-0.3,0.3-0.3-0.3c-0.8-7.5-1.1-15.1-1.1-22.6c0-2.5-0.6-4.7-3.3-6.4c-1.8-1.1-7.2-3.1-9.2-0.8c-1.8,2-3.8,7.2-5.7,13.5
		c-1.7,5-2.8,8.6-2.8,8.6v-19c0.1-1.1-0.6-2.4-1.8-2.8c-2.2-0.7-4.6-1.1-7-1.4c-2,0-2.4,1.1-2.4,2.6c0,0.1-0.3,18.1-0.3,30.7v1.8
		c-1.1,5.7-4.5,13.7-8.2,13.7s-5.4-3.3-5.4-18.3c0-8.8,0.3-12.5,0.4-18.8c0.1-3.6,0.1-6.4,0.1-7c0-2-3.3-2.9-5-3.3
		c-1.3-0.3-2.6-0.4-4-0.4s-2.5,1.1-2.5,2.4l0,0l0,0v2c-1.7-2.8-4.2-4.7-7.1-5.9c-5.7-1.7-11.6-0.1-15.9,6
		c-3.5,4.9-5.7,10.5-6.4,18.4c-0.7,5.6-0.4,11.2,0.7,16.7c-1.3,5.7-3.8,7.9-6.3,7.9c-3.9,0-6.7-6.3-6.3-17.1
		c0.1-7.1,1.7-12.1,3.2-19.4c0.7-3.1,0.1-4.7-1.3-6.3s-3.9-2.1-7.7-1.3c-2.6,0.7-6.6,1.4-10.2,1.8c0.1-0.8,0.3-1.5,0.4-2.4
		c1-7.9-7.7-7.2-10.5-4.7c-1.8,1.7-3.1,4-3.2,6.6c-0.4,2.9,1,5.9,3.5,7.5c-1.8,7.1-4.5,13.9-8.1,20.4c-1.5,2.8-3.2,5.3-5,7.9v-2.8
		c0-13.1,0.1-23.4,0.1-27c0.1-3.8,0.1-6.3,0.1-7c0-1.4-0.8-2-2.5-2.6c-1.7-0.7-3.3-1.1-5.2-1.1c-2.4-0.1-3.8,1.1-3.8,2.5v2
		c-1.7-2.8-4.2-4.7-7.1-5.9c-5.7-1.7-11.6-0.1-15.9,6c-3.5,4.9-5.9,11.8-6.4,18.4c-0.6,5.3-0.4,10.6,0.3,15.8
		c-0.8,4.3-3.3,8.9-6.3,8.9c-3.8,0-5.9-3.3-5.9-18.3c0-8.8,0.3-12.5,0.4-18.8c0.1-3.6,0.1-6.4,0.1-7c0-2-3.3-2.9-5-3.3
		c-1.4-0.4-2.8-0.4-4-0.4c-1.3,0.1-2.4,1.1-2.4,2.4v2.1c-1.7-2.8-4.2-4.7-7.1-5.9c-5.7-1.7-11.4-0.1-15.9,6c-2.9,4-5.3,8.5-6.4,18.4
		c-0.3,2.6-0.4,5.3-0.4,7.9c-1.1,7-6.3,15.2-10.5,15.2c-2.4,0-4.7-4.7-4.7-14.8c0-13.5,0.8-32.6,1-34.4l6.3-0.1c2.6,0,5,0,8.5-0.1
		c1.8-0.1,3.3-6.4,1.7-7.2c-0.8-0.4-6.7-0.7-8.9-0.7c-2,0-7.2-0.4-7.2-0.4s0.4-12.7,0.6-14.1c0.1-1.1-1.4-1.7-2.1-2.1
		c-2-0.8-3.9-1.4-6-1.8c-2.9-0.6-4.3,0-4.6,2.4c-0.4,3.8-0.6,14.9-0.6,14.9c-2.1,0-9.6-0.4-11.8-0.4s-4.2,8.6-1.4,8.8
		c3.2,0.1,8.8,0.1,12.5,0.3c0,0-0.1,19.5-0.1,25.5v1.8c-1.1,6.3-4.5,12.1-9.2,16.4c1.5-7-1.5-12.3-7.2-16.7
		c-2.1-1.7-6.3-4.7-10.9-8.2c2.1-2.4,3.8-5,5-7.9c1.7-3.8,1.8-8.1-2.4-8.9c-6.8-1.5-12.5,3.3-14.1,8.8c-1.4,3.6-0.6,7.7,2,10.5
		l0.6,0.7c-1.5,2.9-3.8,7-5.4,10c-5,8.6-8.8,15.5-11.6,15.5c-2.2,0-2.2-7-2.2-13.4c0-5.6,0.4-13.9,0.8-22.6c0.1-2.8-1.4-4.5-3.8-6
		c-1.4-0.8-4.6-2.6-6.4-2.6c-2.8,0-10.6,0.4-17.8,21.7l-2.8,7.7l0.1-25.7c0-0.7-0.4-1.3-1.1-1.5c-2.4-1.1-4.9-2-7.5-2.1
		c-1.4,0-2.1,0.7-2.1,2l-0.4,40.1c-0.1,2.8,0.1,5.4,0.4,8.2c0.1,1.3,0.7,2.5,1.4,3.6c0.6,0.8,1.4,1.4,2.4,1.5c1.1,0.1,7,1,7.2-1.3
		c0.4-2.8,0.4-5.6,3.3-16.4c4.7-16.9,11-25.1,13.9-28c0.4-0.4,1.1-0.4,1.1,0.3c-0.1,3.8-0.6,12.8-0.8,20.8
		c-0.8,20.9,3.1,24.8,8.5,24.8c4.2,0,10-4,16.4-14.6c3.9-6.6,7.7-13,10.6-17.6c2,1.8,4,3.8,6.3,5.7c5,4.7,6.7,9.2,5.6,13.5
		c-0.8,3.2-3.9,6.7-9.6,3.3c-1.7-1-2.4-1.7-3.9-2.8c-0.8-0.7-2.1-0.7-3.1-0.1c-2,1.4-3.3,3.6-3.9,6c-0.7,2.4,1.8,3.8,4.3,4.7
		c3.1,1.1,6.4,1.8,9.8,2c11.6,0.4,20.6-5.6,27-20.8c1.1,13.1,6,20.6,14.5,20.6c5.7,0,11.3-7.2,13.8-14.5c0.6,2.8,1.7,5.3,3.1,7.7
		c6.6,10.3,19.2,8.1,25.5-0.7c0.8-1.1,1.7-2.4,2.1-3.8c1,8.2,7.7,11.2,11.4,11.2c4.3,0,8.6-2.1,11.8-8.9c0.4,0.8,0.8,1.4,1.3,2.1
		c6.6,10.3,19.2,8.1,25.5-0.7c0.3-0.4,0.6-0.8,0.8-1.1l0.1,5.4l-5.9,5.3c-9.9,8.9-17.4,15.8-17.8,23.8c-0.7,10.2,7.5,13.9,13.8,14.5
		c6.7,0.4,12.3-3.1,15.8-8.2c3.1-4.5,5-14.1,4.9-23.7c-0.1-3.8-0.1-8.6-0.1-13.8c9.3-10.9,16.4-23.3,21.2-36.8c0,0,3.6,0,7.5-0.1
		c1.3-0.1,1.5,0.1,1.4,1.1c-0.3,1.1-4.9,19-0.7,30.7c2.9,8.1,9.3,10.7,13.2,10.7c4.5,0,8.8-3.3,11.2-8.5c0.3,0.6,0.6,1.1,0.8,1.7
		c6.6,10.3,19.1,8.1,25.5-0.7c0.8-1.1,1.7-2.4,2.2-3.8c1.4,8.6,8.1,11.2,11.8,11.2c4,0,7.8-1.7,10.9-8.9c0,2.2,0.1,4.5,0.7,6.7
		c0.1,0.4,1.4,1.1,2.1,1.4c2.8,1,5.9,1.1,8.8,0.4c1-0.1,1.7-1,1.8-2.9c0.3-5.2,0.1-13.8,1.7-20.4c2.6-10.9,5-15.1,6.3-17.1
		c0.7-1.1,1.4-1.4,1.4-0.1c0.1,2.5,0.1,9.9,1.1,19.7c0.8,7.2,1.8,11.6,2.5,12.8c2.1,3.9,4.9,4,7.1,4c1.4,0,4.3-0.4,4-2.8
		c-0.1-1.1,0.1-8.6,2.8-19.4c1.4-5.3,3.2-10.6,5.6-15.6c0.4-0.8,0.6-0.1,0.6,0c-0.1,4.7-0.7,20.6,1.3,29.1c2.6,11.7,10.3,13,13,13
		c5.7,0,10.5-4.3,12-15.8C586.7,90.3,586,88.3,584.4,88.3"/>
</g>
</svg>
