<?xml version="1.0" encoding="utf-8"?>
<!-- Generator: Adobe Illustrator 26.0.2, SVG Export Plug-In . SVG Version: 6.00 Build 0)  -->
<svg version="1.1" id="Layer_1" xmlns="http://www.w3.org/2000/svg" xmlns:xlink="http://www.w3.org/1999/xlink" x="0px" y="0px"
	 viewBox="0 0 502.8 150" style="enable-background:new 0 0 502.8 150;" xml:space="preserve">
<style type="text/css">
	.st0{fill:url(#SVGID_1_);}
	.st1{fill:#FFFFFF;}
	.st2{fill:none;}
	.st3{fill:#F9F9F9;}
</style>
<linearGradient id="SVGID_1_" gradientUnits="userSpaceOnUse" x1="36.0517" y1="144.7764" x2="126.9184" y2="-72.736" gradientTransform="matrix(1 0 0 -1 0 152)">
	<stop  offset="0" style="stop-color:#EF1970"/>
	<stop  offset="0.1438" style="stop-color:#F23B5C"/>
	<stop  offset="0.445" style="stop-color:#F77D35"/>
	<stop  offset="0.6983" style="stop-color:#FCAD18"/>
	<stop  offset="0.8909" style="stop-color:#FECB07"/>
	<stop  offset="1" style="stop-color:#FFD600"/>
</linearGradient>
<circle class="st0" cx="64.4" cy="75.1" r="64.4"/>
<path class="st1" d="M14.8,58.4c-0.4-0.5-1.1-0.7-1.6-0.4c-0.5,0.4-0.7,1.1-0.4,1.6c0.4,0.5,1.1,0.7,1.6,0.4
	C15.1,59.6,15.2,58.9,14.8,58.4"/>
<path class="st1" d="M84,27.4c-0.4-0.5-1.1-0.7-1.6-0.4c-0.5,0.4-0.7,1.1-0.4,1.6c0.4,0.5,1.1,0.7,1.6,0.4
	C84.2,28.6,84.3,28,84,27.4"/>
<path class="st1" d="M98.3,73.8c-0.1,0.7,0.2,1.5,1,1.6s1.5-0.2,1.6-1c0.1-0.7-0.2-1.5-1-1.6C99.2,72.7,98.5,73.1,98.3,73.8"/>
<path class="st1" d="M77.6,119.9c-0.1,0.6,0.2,1.1,0.7,1.2c0.6,0.1,1.1-0.2,1.2-0.7c0.1-0.6-0.2-1.1-0.7-1.2
	C78.4,118.9,77.9,119.3,77.6,119.9"/>
<path class="st1" d="M23.9,37.1c-0.1,0.4,0.1,0.7,0.5,0.7c0.4,0.1,0.7-0.1,0.7-0.5c0.1-0.4-0.1-0.7-0.5-0.7S23.9,36.7,23.9,37.1"/>
<path class="st1" d="M27.3,97.9c-0.1-0.5-0.5-0.9-1-0.7c-0.5,0.1-0.9,0.5-0.7,1s0.5,0.9,1,0.7C27,98.9,27.3,98.4,27.3,97.9"/>
<path class="st2" d="M54.4,23.4c0,0-10.2,2.7-9.3,13.6c0.7,9.6,5.7,14.8,16.3,10.8s12.3-6.7,9.7-14.8S65.6,19.5,54.4,23.4z"/>
<path class="st1" d="M114,114.9c-0.4-0.7-8-12.6-9-22.3c-0.7-6.9-9.6-14.3-14.9-18.3c-2-1.5-2.1-4.2-0.4-6
	c5.2-5,14.6-14.7,17.6-19.8c2.1-3.9,4.4-11.1,4.2-17.3c-3.6-3.9-7.7-7.3-12.2-10.2c-4.4,2.1-5.5,8.8-7.3,16.6
	c-2.6,10.6-8.7,9.3-11.2,9.3c-2.4,0-1-3.7-6.7-20.3S53.2,14.2,41.7,21c-14.6,8.7-8.1,27.3-4.5,39.2c-2,2-9.7,3.5-16.7,7.2
	C12,72.1,3,79.6,0.7,83.1c0.6,4.7,1.7,9.3,3.2,13.7c0.5,0.5,1.1,0.9,1.7,1.1c4.1,1.9,10.1-1.4,15.8-7.2c1.5-1.6,2.4-2.2,5.7-4.4
	C34,81.7,42,79.4,42,79.4s5.6,8.6,10.8,18.8s-5.6,13.6-6.7,13.6c-1.2,0-18.2-1.6-14.3,12.8c3.7,14.3,24.5,9.2,35.1,2.2
	c10.6-7,8-29.8,8-29.8c10.3-1.6,13.6,9.3,14.6,14.9c1,5.6-1.2,15.3,9.2,15.6c1.5,0,3-0.2,4.4-0.6c4-3,7.7-6.4,11-10.2
	C113.9,115.8,114,115.2,114,114.9z M61.5,47.7c-10.6,4-15.7-1.2-16.3-10.8c-0.7-10.8,9.3-13.6,9.3-13.6c11.2-3.7,14.2,1.6,16.8,9.6
	S72,43.7,61.5,47.7z"/>
<polygon class="st1" points="113.7,58.5 110.9,59.9 110.1,63.1 108.7,60.3 105.5,59.5 108.4,58.1 109.1,54.9 110.5,57.8 "/>
<g>
	<g>
		<path class="st1" d="M270.7,49.1c-0.9-9.7-1.2-11.5-2-15.7c-0.3-1.5-0.5-3.4-1.1-5.9c-0.4-2.7-0.8-4.7-1.1-6.1
			c-0.3-1.5-0.7-2.7-0.9-3.9c-0.4-1.5-0.9-2.6-1.8-3.2c-0.7-0.5-1.4-1.1-2.2-1.4c-0.8-0.3-1.6-0.4-2.7-0.4c-1.1,0-4.3,0-5.7,2.3
			c-0.5,0.9-0.9,2.4-0.9,7.6c0,1.9,0,2,0.1,3.4l0.1,1.5c0.3,2.8,0.7,5.1,1.2,7c0,0.1,0.1,0.3,0.1,0.5c0,0.5,0.1,1.2,0.3,1.9
			c0.3,1.9,0.5,2.7,0.8,3.4c0.1,0.5,0.3,0.9,0.4,2.4c0.7,7.3,0.4,9.3,0.4,9.9c0,0-0.1,0.1-0.7,0.1c-1.9,0-20.4,5.4-25.1,8.7
			c-5,3.2-8.5,6.9-10.5,10.8c-2.2,4.3-2.8,29.2-2.8,29.5c-0.1,5.7,0.8,9.2,3.1,10.9c0.1,0.1,0.3,0.3,0.4,0.4
			c1.8,1.9,6.4,6.9,16.1,8.4c7.3,1.1,13.8,1.1,19.6,0.9c2.4,0,4.7,0,6.9,0h0.4l10-3.2l-0.3-18.9C272.6,91,271.9,62.6,270.7,49.1z
			 M258.8,99.9c-0.1,1.2-0.3,2.2-0.4,2.7c-0.1,0.4-0.1,0.9-0.4,1.4c-0.1,0.3-0.1,0.4-0.1,0.4c-0.1,0-0.1,0.1-0.3,0.1
			c-0.4,0.1-0.7,0.1-1.1,0.3c-0.5,0-1.4,0-2.4,0c-3.4,0-8-0.7-13.4-1.9c-6.4-1.5-7.8-2.4-8-2.4l0,0c-1.1-2.6,1.6-21.6,9.1-27.2
			c7.4-5.7,11.2-6.1,13.1-5.5c0.5,0.1,2,0.7,3.1,4.1c0.3,1.4,0.5,10.3,0.7,15.1c0.1,3.4,0.1,6.1,0.3,6.9
			C259.1,96.2,259.1,98.2,258.8,99.9z"/>
		<path class="st1" d="M318.3,46.3c-1.4,1.1-2.4,2.6-3.4,4.7v0.1c-1.2,3.2-2.3,5.8-3.5,8c-1.2,2.6-1.9,4.6-1.9,6.5
			c0,0.3-0.1,0.8-0.4,1.8c-0.3,0.5-0.4,1.1-0.8,1.6c-0.1-0.1-0.4-0.3-0.5-0.4c-0.9-0.7-2-1.6-3.4-2.8c-1.4-1.4-3.2-3.1-5.4-5.4
			c-9.6-9.7-15.3-13.2-19.1-11.6c-2.2,0.9-3.2,3.1-3.2,6.6c0,2.2,1.2,5,3.5,8.5c2.2,3.1,5.7,7.4,10.3,12.7c7,8,11.8,10.1,14.1,11.1
			c0,1.6-0.1,4.7-0.5,5.9c-0.5,2-1.5,4.3-2.6,6.9c-1.4,2.7-2.4,5.5-3.4,8.7c-0.9,3.1-1.5,5.5-1.5,7.4c0,2.8,0.4,4.6,1.4,5.7
			c0.8,0.9,2,1.5,3.5,1.5c0.5,0,1.1,0,1.6-0.1c1.4-0.1,2.7-0.7,4.1-1.5c1.4-0.8,2.4-1.9,2.8-2.8c0.3-0.4,0.8-1.5,1.6-3.2
			c0.8-1.6,1.4-2.8,1.6-3.5c0.8-1.4,1.6-3.6,2.6-7.3c0.9-3.5,1.8-7.2,2.6-10.9c0.8-3.8,1.9-8.1,3.4-13.1c1.4-5,2.7-9.1,3.8-12.3
			c1.6-4.2,2.7-7.4,3.5-10.1c0.8-2.8,1.2-5.1,1.2-7c0-2.3-0.7-4.1-1.9-5.1C326.1,44.1,321.1,44.1,318.3,46.3z"/>
		<path class="st1" d="M379.8,47.1c-0.4-0.4-0.9-0.8-1.8-1.2c-0.7-0.3-1.4-0.4-1.9-0.5c-0.4,0-1.2-0.1-2.2-0.1s-1.9-0.1-2.7-0.1
			c-0.9,0-2.2,0-3.8,0c-8.1,0-13.8,1.1-17.3,3.5c-4.5,2.7-7.7,6.4-9.7,11.1c-1.9,4.5-2.8,10.4-2.8,17.8L337.5,92l14.9,4.9
			c4.7,1.5,7.3,2.6,8.5,3.1c-0.7,0.3-1.8,0.7-3.5,0.9c-2.3,0.5-4.7,0.8-7,0.8c-3,0-5.1,0.1-6.6,0.3c-1.8,0.3-3.1,0.8-3.9,1.6
			c-0.9,0.9-1.4,2.3-1.4,3.9c0,1.6,0.5,3.9,3.1,5.8c1.8,1.4,3.9,2.3,6.6,2.7c2,0.4,4.2,0.5,6.4,0.5c0.5,0,1.1,0,1.6,0
			c2.8-0.1,5.8-0.7,8.8-1.5c3-0.9,5.7-2.2,7.8-3.8c2.4-1.9,4.2-3.6,5.1-5.3c0.9-1.8,1.5-3.9,1.5-6.8c0-4.3-1.5-7.7-4.2-10
			c-2.6-2-7.2-4.1-14.3-5.9c-7.4-2.3-8.8-3.4-9.1-3.6c-0.3-0.3-0.9-1.8,0.9-6.4c1.5-3.8,3.9-7.3,6.9-10.3c3.4-3.4,5.1-4.5,5.8-4.7
			c0.7-0.3,2.3-0.7,5.8-0.1c1.4,0.1,2.4,0.4,3.1,0.4c0.8,0.1,1.6,0.1,2.4,0c0.9-0.1,1.6-0.3,2.2-0.5c0.7-0.4,1.2-0.9,1.6-1.8
			c0.3-0.7,0.5-1.4,0.5-2.2c0-0.4,0-1.2,0-2.2v-1.5c0-0.5-0.1-1.2-0.4-1.9C380.5,48,380.2,47.5,379.8,47.1z"/>
		<path class="st1" d="M440.8,56.1c-0.3-0.8-0.7-1.6-1.4-2.6c-0.5-0.9-1.2-1.8-2.2-2.7l-2.2-2.3c-3-3-5.4-4.7-7.4-5.7
			s-4.9-1.4-8.8-1.4c-5.8,0-10.9,1.5-15.3,4.3l0,0c-3.8,2.6-6.8,5.3-8.8,7.7c-2.2,2.6-3.6,5.7-4.6,9.1c-0.9,3.2-1.5,7.7-1.8,13
			c-0.8,14.1,1.6,24.5,7.2,31c5.1,5.9,13.1,9.1,23.9,9.1c1.1,0,2.2,0,3.4-0.1l4.6-0.3c1.1-0.1,2.2-0.3,3.2-0.4
			c1.2-0.3,2.2-0.5,2.7-0.8c0.7-0.3,1.2-0.8,1.8-1.5s0.9-1.5,0.9-2.4c0-0.5,0.1-1.2,0.1-2.2c0-1.9-0.3-4.5-2.2-5.7
			c-0.9-0.5-2.4-0.9-7.2-0.3c-3.9,0.5-8-0.3-12.2-2.3s-7-4.6-8.7-7.7l-1.1-2.2l7.8-0.8c4.2-0.4,7.8-1.1,10.8-2.2
			c3.1-1.1,6.1-2.6,8.9-4.5c1.9-1.4,3.2-2.4,4.2-3.1c1.1-0.9,2-2,2.7-3.5c0.7-1.4,1.2-2.8,1.5-4.2c0.1-1.2,0.4-3,0.5-5.5
			c0.1-1.6,0.1-3,0.1-4.1c0-1.1-0.1-2.2-0.3-3.2C441.2,57.8,440.9,56.8,440.8,56.1z M406.3,71.6l-2.3-2.3l5.7-5.5
			c1.9-1.9,3.8-3.5,5.7-4.9c2-1.5,2.7-1.6,2.7-1.8c0.1,0,0.7,0.3,2,1.2c1.4,1.1,2.7,2.3,3.9,3.8l3.4,4.1l-3.1,2.7
			c-1.1,0.9-2.7,1.9-4.7,2.8c-2,0.9-3.9,1.6-5.4,1.9c-3,0.5-4.5,0.4-5,0.1C408.7,73.6,407.8,73,406.3,71.6z"/>
		<path class="st1" d="M502.4,63.2c-0.1-1.1-0.4-2-0.5-2.7c-0.3-0.8-0.7-1.6-1.4-2.6c-0.5-0.9-1.2-1.8-1.9-2.4l-2.4-2.6
			c-3-3-5.4-4.7-7.4-5.7c-2-0.9-4.9-1.4-8.8-1.4c-5.8,0-10.9,1.5-15.3,4.3l0,0c-3.8,2.6-6.8,5.3-8.8,7.7c-2.2,2.6-3.6,5.7-4.6,9.1
			c-0.9,3.2-1.5,7.7-1.8,13c-0.8,14.1,1.6,24.5,7.2,31c5.1,5.9,13.1,9.1,23.9,9.1c1.1,0,2.2,0,3.4-0.1l4.6-0.3
			c1.1-0.1,2.2-0.3,3.2-0.4c1.4-0.3,2.2-0.5,2.7-0.8c0.7-0.3,1.2-0.8,1.8-1.5c0.5-0.7,0.9-1.5,0.9-2.4c0-0.5,0.1-1.2,0.1-2.2
			c0-1.9-0.3-4.5-2.2-5.7c-0.9-0.5-2.4-0.9-7.2-0.3c-3.9,0.5-8-0.3-12.2-2.3s-7-4.6-8.7-7.7l-1.1-2.2l7.8-0.8
			c4.2-0.4,7.8-1.1,10.8-2.2c3.1-1.1,6.1-2.6,8.9-4.5c1.9-1.4,3.2-2.4,4.2-3.1c1.1-0.9,2-2,2.7-3.5c0.7-1.4,1.2-2.8,1.5-4.2
			c0.1-1.2,0.4-3,0.5-5.5c0.1-1.6,0.1-3,0.1-4.1C502.5,65.2,502.5,64.1,502.4,63.2z M467.4,75.7l-2.3-2.3l5.7-5.5
			c1.9-1.9,3.8-3.5,5.5-4.9c2-1.5,2.7-1.6,2.7-1.8c0.1,0,0.7,0.3,2,1.2c1.4,1.1,2.7,2.3,3.9,3.8l3.4,4.1l-3.1,2.7
			c-1.1,0.9-2.7,1.9-4.7,2.8c-2,0.9-3.9,1.6-5.4,1.9c-3,0.5-4.3,0.4-5,0.1C469.8,77.8,468.9,77.4,467.4,75.7z"/>
		<path class="st1" d="M162.2,55.5c1.4-0.5,3.8-1.1,7.3-1.4c3.6-0.4,7.3-0.5,11.1-0.5c6.2,0,10.4,0.3,12.6,0.8
			c2.2,0.7,4.7,2.2,7.4,4.7c2.3,2.3,3.9,4.7,5,7.2c1.1,2.6,1.8,6.2,2.3,10.9c0.9,7.2,0.7,14.1-0.7,20.7c-1.4,6.6-3.2,10.7-5.8,12.2
			c-1.9,0.9-5.3,3.4-10,7c-2.6,2-4.9,3.2-6.8,3.6c-1.9,0.4-5,0.4-9.1-0.1c-3.9-0.7-7-1.6-9.6-3.1c-2.6-1.4-5.5-3.8-8.8-7
			c-1.8-1.6-3-2.8-3.6-3.6c-0.7-0.8-1.5-1.8-2.3-3c-0.8-1.2-1.4-2.2-1.6-2.8s-0.5-1.8-0.8-3.5c-0.3-1.8-0.4-3.2-0.4-4.6s0-3.5,0-6.6
			C148.4,69.3,153,59,162.2,55.5z M189.2,67.4c-4.1-3.9-6.6-5.8-7.7-5.8c-2.2,0-5,1.4-8.4,3.8c-3.4,2.4-6.1,5.3-8.2,8.4
			c-3.4,5-5,9.5-4.6,13.7c0.3,4.1,2.6,8.4,6.9,13l7,7.7l8.7-3.9c5.1-2.3,8.9-5.5,11.4-9.7c2.4-4.2,3.2-8.7,2.3-13.5
			C195.8,76,193.3,71.6,189.2,67.4z"/>
	</g>
</g>
<g>
	<g>
		<path class="st3" d="M67.5,34.9c0.7,1.7,0.7,2.7,0.5,4.5"/>
		<path class="st1" d="M68,40.7c-0.1,0-0.1,0-0.2,0c-0.7-0.1-1.2-0.9-1.1-1.6c0.2-1.5,0.2-2.2-0.4-3.7c-0.2-0.7,0-1.5,0.7-1.7
			c0.7-0.2,1.5,0,1.7,0.7c0.7,1.9,1,3.2,0.5,5.2C69.3,40.2,68.6,40.7,68,40.7z"/>
	</g>
	<g>
		<path class="st3" d="M64.3,27.4c0,0,0.2,0.2,1,1.5"/>
		<path class="st1" d="M65.3,30.2c-0.5,0-1-0.2-1.2-0.7c-0.5-1-0.7-1.2-0.7-1.2c-0.5-0.5-0.5-1.4,0-1.9c0.5-0.5,1.4-0.5,1.9,0
			c0.1,0.1,0.6,0.6,1.2,1.9c0.4,0.6,0.1,1.5-0.5,1.9C65.6,30.2,65.4,30.2,65.3,30.2z"/>
	</g>
</g>
</svg>
