<?xml version="1.0" encoding="utf-8"?>
<!-- Generator: Adobe Illustrator 26.0.2, SVG Export Plug-In . SVG Version: 6.00 Build 0)  -->
<svg version="1.1" id="Layer_1" xmlns="http://www.w3.org/2000/svg" xmlns:xlink="http://www.w3.org/1999/xlink" x="0px" y="0px"
	 viewBox="0 0 308.4 150" style="enable-background:new 0 0 308.4 150;" xml:space="preserve">
<style type="text/css">
	.st0{fill-rule:evenodd;clip-rule:evenodd;fill:#FFFFFF;}
	.st1{fill-rule:evenodd;clip-rule:evenodd;fill:url(#SVGID_1_);}
</style>
<g transform="scale(.3318222)">
	<path class="st0" d="M929.3,75.3h-87.3l-87.3,150.6l87.3,150.6h87.2L841.9,226L929.3,75.3z"/>
	
		<radialGradient id="SVGID_1_" cx="15882.9053" cy="21279.1426" r="217.6032" gradientTransform="matrix(8.597513e-02 0 0 0.141 -543.2911 -2775.5222)" gradientUnits="userSpaceOnUse">
		<stop  offset="0" style="stop-color:#F9BE03"/>
		<stop  offset="1" style="stop-color:#CC7C19"/>
	</radialGradient>
	<path class="st1" d="M658.3,75.3h87.3L841.9,226l-96.3,150.7h-87.3L754.6,226L658.3,75.3z"/>
	<path class="st0" d="M628.2,376.4H454.3V75.3h173.8v52.3H518.3v66.1h102.2v52.3H518.3v77.6h109.8L628.2,376.4L628.2,376.4z
		 M238.3,376.4V75.3h63.9v248.4h122.1v52.7L238.3,376.4L238.3,376.4z"/>
	<path class="st0" d="M177.7,243.6c-20.3,17.2-49.1,25.7-86.4,25.7H63.9v107.1H0V216.9l87.3,0.1c53.4-0.6,56.3-33.4,56.3-44.7
		c0-10.5,0-44.2-47.5-44.7l-96.1,0V75.3h96.2c36.5,0,64.3,7.9,83.3,23.6c19,15.7,28.5,39.2,28.5,70.3
		C208,201.7,197.9,226.4,177.7,243.6L177.7,243.6z"/>
	<path class="st0" d="M0,108.4h63.9v129.1H0V108.4z"/>
</g>
</svg>
