<?xml version="1.0" encoding="utf-8"?>
<!-- Generator: Adobe Illustrator 26.0.2, SVG Export Plug-In . SVG Version: 6.00 Build 0)  -->
<svg version="1.1" id="Layer_1" xmlns="http://www.w3.org/2000/svg" xmlns:xlink="http://www.w3.org/1999/xlink" x="0px" y="0px"
	 viewBox="0 0 447.8 150" style="enable-background:new 0 0 447.8 150;" xml:space="preserve">
<style type="text/css">
	.st0{fill:#FF4500;}
	.st1{fill:#FFFFFF;}
</style>
<g>
	<circle class="st0" cx="65" cy="75" r="65"/>
	<path class="st1" d="M108.4,75c-0.2-5.2-4.6-9.3-9.8-9.1c-2.3,0.1-4.5,1-6.2,2.6c-7.4-5-16.1-7.8-25-8l4.2-20.3l13.9,2.9
		c0.4,3.6,3.6,6.2,7.2,5.8c3.6-0.4,6.2-3.6,5.8-7.2s-3.6-6.2-7.2-5.8c-2.1,0.2-3.9,1.4-4.9,3.2L70.3,36c-1.1-0.2-2.2,0.4-2.4,1.5
		c0,0,0,0,0,0l-4.8,22.6c-9,0.1-17.9,2.9-25.4,8c-3.8-3.6-9.8-3.4-13.4,0.4c-3.6,3.8-3.4,9.8,0.4,13.4c0.7,0.7,1.6,1.3,2.6,1.7
		c-0.1,1-0.1,1.9,0,2.9c0,14.6,17,26.4,37.9,26.4s37.9-11.8,37.9-26.4c0.1-1,0.1-1.9,0-2.9C106.4,82,108.4,78.6,108.4,75z
		 M43.4,81.5c0-3.6,2.9-6.5,6.5-6.5c3.6,0,6.5,2.9,6.5,6.5c0,3.6-2.9,6.5-6.5,6.5C46.3,88,43.4,85.1,43.4,81.5z M81.1,99.4
		c-4.6,3.5-10.3,5.2-16.1,5c-5.8,0.2-11.4-1.5-16.1-5c-0.6-0.7-0.5-1.9,0.2-2.5c0.6-0.5,1.6-0.5,2.2,0c3.9,2.9,8.7,4.3,13.5,4.1
		c4.8,0.3,9.6-1.1,13.6-4c0.7-0.7,1.9-0.7,2.6,0c0.7,0.7,0.7,1.9,0,2.6l0,0L81.1,99.4L81.1,99.4z M79.9,88.3c-3.6,0-6.5-2.9-6.5-6.5
		c0-3.6,2.9-6.5,6.5-6.5s6.5,2.9,6.5,6.5c0.1,3.6-2.7,6.6-6.2,6.8c-0.1,0-0.2,0-0.3,0L79.9,88.3z"/>
</g>
<g>
	<circle class="st0" cx="398.8" cy="40.2" r="10.9"/>
	<path class="st1" d="M244,86.7c4.2,0.3,7.9-2.9,8.2-7.1c0-0.2,0-0.5,0-0.8c-0.1-1.5-0.2-3-0.5-4.4c-2.6-13.8-14.4-24-28.5-24.6
		c-16,0-29.4,14.7-29.4,32.8s13.2,32.8,29.4,32.8c8.6,0.3,16.9-3.1,22.7-9.5c2.4-2.6,2.2-6.6-0.4-9c-0.2-0.2-0.4-0.3-0.6-0.5
		c-2.6-1.6-6-1.3-8.2,0.8c-3.6,3.6-8.5,5.6-13.6,5.8c-8.8-0.7-15.9-7.6-16.7-16.4h37.3L244,86.7z M223.1,62.1
		c7.8,0.5,14.3,6.1,16,13.7h-32C208.9,68.1,215.4,62.6,223.1,62.1z"/>
	<path class="st1" d="M194.5,56.1c0-3.1-2.3-5.7-5.3-6.1c-8.2-1.4-16.6,1.7-22,8.1v-0.8c0-3.4-2.8-6.2-6.2-6.2
		c-3.4,0-6.2,2.8-6.2,6.2v50.4c-0.1,3.3,2.5,6.1,5.8,6.4c3.4,0.2,6.3-2.3,6.5-5.7c0-0.2,0-0.5,0-0.7V81.9
		c-0.5-10.3,7.4-19.1,17.7-19.7c0.9-0.1,1.9,0,2.8,0.1h1.2C192,62,194.5,59.3,194.5,56.1z"/>
	<path class="st1" d="M404.9,62.7c0-3.4-2.8-6.2-6.2-6.2c-3.4,0-6.2,2.8-6.2,6.2l0,0v45c0,3.4,2.8,6.2,6.2,6.2
		c3.4,0,6.2-2.8,6.2-6.2V62.7z"/>
	<path class="st1" d="M314,28.6c0-3.4-2.8-6.1-6.1-6.1l0,0l0,0c-3.4,0-6.1,2.8-6.1,6.1v27.5c-4.1-4.2-9.8-6.5-15.7-6.3
		c-16,0-29.4,14.7-29.4,32.8s13.2,32.8,29.4,32.8c6,0.2,11.8-2.1,16-6.4c1,3.2,4.4,5.1,7.6,4.1c2.5-0.7,4.2-2.9,4.4-5.4L314,28.6
		L314,28.6z M286,103.2c-9.4,0-17.1-9.2-17.1-20.5s7.6-20.5,17.1-20.5c9.5,0,17.1,9.2,17.1,20.5S295.5,103.1,286,103.2L286,103.2z"
		/>
	<path class="st1" d="M378.3,28.6c0-3.4-2.8-6.1-6.1-6.1l0,0c-3.4,0-6.1,2.8-6.1,6.1l0,0v27.5c-4.1-4.2-9.8-6.5-15.7-6.3
		c-16,0-29.4,14.7-29.4,32.8s13.2,32.8,29.4,32.8c6,0.2,11.8-2.1,16-6.4c1,3.2,4.4,5.1,7.6,4.1c2.5-0.7,4.2-2.9,4.4-5.4L378.3,28.6
		L378.3,28.6z M350.2,103.2c-9.4,0-17.1-9.2-17.1-20.5s7.6-20.5,17.1-20.5c9.5,0,17.1,9.2,17.1,20.5S359.7,103.1,350.2,103.2
		L350.2,103.2z"/>
	<path class="st1" d="M436.8,107.7V62.1h5.3c3,0.2,5.5-2.1,5.6-5c0-0.1,0-0.2,0-0.3c0.3-2.9-1.9-5.5-4.8-5.8c-0.2,0-0.3,0-0.5,0
		h-5.6v-8.5c0-3.3-2.5-6.1-5.8-6.4c-3.4-0.2-6.3,2.3-6.5,5.7c0,0.1,0,0.3,0,0.4v8.9h-5.3c-3-0.2-5.5,2.1-5.6,5c0,0.1,0,0.2,0,0.3
		c-0.3,2.9,1.9,5.5,4.8,5.8c0.2,0,0.3,0,0.5,0h5.3v45.5c0,3.4,2.8,6.1,6.1,6.1l0,0l0,0c3.4,0.2,6.3-2.4,6.5-5.8
		C436.8,108,436.8,107.8,436.8,107.7z"/>
</g>
</svg>
