<?xml version="1.0" encoding="utf-8"?>
<!-- Generator: Adobe Illustrator 26.0.2, SVG Export Plug-In . SVG Version: 6.00 Build 0)  -->
<svg version="1.1" id="Layer_1" xmlns="http://www.w3.org/2000/svg" xmlns:xlink="http://www.w3.org/1999/xlink" x="0px" y="0px"
	 viewBox="0 0 175.7 150" style="enable-background:new 0 0 175.7 150;" xml:space="preserve">
<style type="text/css">
	.st0{fill:#FFFFFF;}
	.st1{fill:#1C9AD6;}
</style>
<g>
	<path class="st0" d="M36.5,52.9c0,0.9-0.4,1.8-1.1,2.5c-0.7,0.7-1.6,1.1-2.6,1c-0.9,0-1.8-0.4-2.5-1.1c-2.6-2.6-6.9-3.6-9.7-3.6
		c-4.2,0-7.6,1.5-10,4.4c-2.4,2.9-3.6,7-3.6,12.4v38.4c0.1,1-0.3,2-1.1,2.7c-0.7,0.6-1.5,0.9-2.4,0.9c-0.9,0-1.7-0.3-2.4-0.9
		c-0.8-0.7-1.2-1.6-1.1-2.7V68.5c0-3.1,0.4-6.3,1.3-9.3c0.8-2.7,2.1-5.3,3.9-7.5c1.7-2.2,3.9-3.9,6.4-5.2c2.8-1.3,5.9-2,9-1.9
		c2.7,0,5.3,0.6,7.8,1.5c2.6,0.9,4.9,2.4,6.8,4.2C36,51.1,36.4,52,36.5,52.9L36.5,52.9z"/>
	<path class="st0" d="M54.2,106.9c0.1,1-0.3,2-1.1,2.7c-1.4,1.2-3.4,1.2-4.8,0c-0.8-0.7-1.2-1.6-1.1-2.7V49.4c-0.1-1,0.3-2,1.1-2.7
		c1.4-1.2,3.4-1.2,4.8,0c0.8,0.7,1.2,1.6,1.1,2.7V106.9z"/>
	<path class="st0" d="M115.5,106.9c0.1,1-0.3,2-1.1,2.7c-1.4,1.2-3.4,1.2-4.8,0c-0.8-0.7-1.2-1.6-1.1-2.7V67.7
		c0-2.1-0.4-4.2-1.2-6.2c-1.6-3.8-4.7-6.9-8.5-8.5c-4-1.7-8.4-1.7-12.4,0c-3.8,1.6-6.9,4.7-8.5,8.5c-0.8,2-1.3,4.1-1.2,6.2v39.2
		c0.1,1-0.3,2-1.1,2.7c-1.4,1.2-3.4,1.2-4.8,0c-0.8-0.7-1.2-1.6-1.1-2.7V67.7c0-3.1,0.6-6.1,1.8-9c1.1-2.7,2.8-5.2,4.9-7.3
		c2.1-2.1,4.5-3.7,7.2-4.9c5.8-2.4,12.3-2.4,18,0c5.5,2.3,9.9,6.7,12.2,12.2c1.2,2.8,1.8,5.9,1.8,9L115.5,106.9z"/>
	<path class="st0" d="M175.7,111c0,3.1-0.6,6.2-1.8,9c-2.3,5.5-6.7,9.9-12.2,12.2c-2.8,1.2-5.9,1.8-9,1.8c-1.7,0-3.5-0.2-5.2-0.5
		c-1.8-0.4-3.7-0.9-5.4-1.6c-1.8-0.7-3.4-1.6-4.9-2.7c-1.5-1-2.7-2.3-3.7-3.8c-0.4-0.6-0.6-1.3-0.6-2c0-1,0.4-1.9,1.1-2.5
		c0.7-0.6,1.6-1,2.5-1c0.5,0,1,0.1,1.5,0.3c0.6,0.3,1.1,0.7,1.4,1.2c1.4,2.1,4.4,3.8,6.4,4.4c2.2,0.7,4.6,1.1,6.9,1.1
		c2.1,0,4.2-0.4,6.2-1.2c3.8-1.6,6.9-4.7,8.5-8.5c0.8-1.9,1.3-4,1.3-6.2v-8.1c-2.1,2-4.5,3.6-7.2,4.7c-2.8,1.1-5.7,1.7-8.7,1.7
		c-3.1,0-6.2-0.6-9-1.8c-5.5-2.3-9.8-6.7-12.2-12.2c-1.2-2.8-1.8-5.9-1.8-9V67.7c0-3.1,0.6-6.1,1.8-9c1.1-2.7,2.8-5.2,4.9-7.3
		c2.1-2.1,4.5-3.7,7.2-4.9c5.8-2.4,12.3-2.4,18,0c5.5,2.3,9.9,6.7,12.2,12.2c1.2,2.8,1.8,5.9,1.8,9L175.7,111L175.7,111z
		 M168.6,67.7c0-2.1-0.4-4.2-1.2-6.2c-1.6-3.8-4.7-6.9-8.5-8.5c-4-1.7-8.4-1.7-12.4,0c-3.8,1.6-6.9,4.7-8.5,8.5
		c-0.8,2-1.2,4.1-1.2,6.2v18.5c0,2.1,0.4,4.3,1.2,6.2c0.8,1.9,2,3.6,3.4,5.1c1.5,1.5,3.2,2.6,5.1,3.4c4,1.7,8.4,1.7,12.4,0
		c3.8-1.6,6.9-4.7,8.5-8.5c0.9-2,1.3-4.1,1.3-6.2L168.6,67.7z"/>
</g>
<circle class="st1" cx="50.6" cy="30" r="6.1"/>
</svg>
