<?xml version="1.0" encoding="utf-8"?>
<!-- Generator: Adobe Illustrator 26.0.3, SVG Export Plug-In . SVG Version: 6.00 Build 0)  -->
<svg version="1.1" id="Layer_1" xmlns="http://www.w3.org/2000/svg" xmlns:xlink="http://www.w3.org/1999/xlink" x="0px" y="0px"
	 viewBox="0 0 533.2 150" style="enable-background:new 0 0 533.2 150;" xml:space="preserve">
<style type="text/css">
	.st0{fill:#74A441;}
	.st1{fill:#FFFFFF;}
	.st2{clip-path:url(#SVGID_00000126302763160675592930000017329697516944553870_);}
	.st3{fill:url(#SVGID_00000018223628705847899400000002143041201879621809_);}
	.st4{clip-path:url(#SVGID_00000036943672615863186070000006930948341999351176_);}
	.st5{fill:url(#SVGID_00000105429235019159638570000015387561441985005969_);}
	.st6{clip-path:url(#SVGID_00000182506633238859839880000005417124478944166561_);}
	.st7{fill:url(#SVGID_00000167397937439323600930000007286456460774966442_);}
</style>
<path class="st0" d="M15.6,20.3c3.2-2,7.2-2.8,11.2-2.4c1.6-2,3.6-4,6-5.2c10.8-6,27.9-0.8,53,13.9c25.9,15.1,38.7,27.1,38.7,39.9
	c0,2.8-0.8,6-2,8.8c1.6,3.2,2.4,6,2,9.2c0,12.4-13.2,24.7-38.7,39.5s-42.2,19.9-53.4,13.9c-3.2-1.8-5.8-4.4-7.6-7.6
	c-3.6,0-6.8-0.8-9.6-2.4C4.5,121.5,0.1,104.4,0.1,74.5C0.5,43.4,4.5,26.3,15.6,20.3z M34.8,34.3c-17.9,10-17.9,71.3,0,81.3
	c18.3,10.8,67.7-25.9,68.1-41.4C102.9,53.4,52.3,24.7,34.8,34.3z"/>
<path class="st1" d="M489.1,70.9H515c-0.4-4.4-1.6-8-3.6-10c-2-2.4-5.2-3.6-9.6-3.6c-3.6,0-6.8,1.2-9.2,3.6
	C490.7,63.3,489.5,66.5,489.1,70.9 M519.8,90.8h12.8c-1.6,6.5-5.4,12.3-10.8,16.3c-5.8,4.2-12.8,6.3-19.9,6
	c-9.6,0-17.1-3.2-22.7-9.6c-5.6-6-8-14.7-8-26.3c0-10.8,2.8-19.1,8-25.5c5.6-6.4,12.8-9.6,22.7-9.6c10,0,17.9,3.2,23.5,9.2
	c5.6,6.4,8,15.1,8,26.3v2.8l-0.4,1.6h-43.8c-0.3,4.2,1.2,8.4,4,11.6c2,2.8,5.6,4,10,4c2.8,0,5.2-0.4,7.2-1.6l1.2-0.8l1.6-1.6l2-2
	L519.8,90.8L519.8,90.8z M445.6,24.3h9.2c4.4-0.2,8.1,3.2,8.4,7.6c0,0.3,0,0.5,0,0.8v78.9h-17.5V24.3z M418.5,77.3
	c0-6-1.2-10.8-4-14.3c-2.3-3.4-6.2-5.4-10.4-5.2c-4.8,0-8.4,1.6-10.8,5.2c-2.4,3.6-4,8.4-4,14.3c0,7.2,1.2,12.4,3.6,15.5
	c2.4,3.6,6,5.2,10.8,5.2s8.4-1.6,10.8-5.2C417.4,88.2,418.8,82.8,418.5,77.3z M389.4,32.7V53c2-3.2,4.4-6,8-8
	c3.5-1.7,7.3-2.5,11.2-2.4c8,0,14.3,3.2,19.5,10s7.6,15.1,7.6,25.5c0.5,9.1-2.2,18.1-7.6,25.5c-2.4,3.2-6,5.6-10.4,6.8
	c-4.4,1.6-8.8,2-12.8,2c-19.5,0-33.1-10.4-33.1-30.7V24.3h8.8c2.2-0.1,4.4,0.8,6,2.4C388.7,28.3,389.4,30.3,389.4,32.7z
	 M319.7,111.6h-17.5v-43c0-4-1.2-7.2-3.6-8.8c-2.4-2-5.2-2.8-8.4-2.8c-3.2,0-5.6,0.8-8,2.8s-3.6,4.8-3.6,8.8v43h-17.9V72.1
	c0-11.6,3.2-19.1,9.2-23.1c9.3-6.1,20.7-8,31.5-5.2c3.7,0.7,7.2,2.5,10,5.2c2.4-2.4,5.6-3.6,9.2-4.8c3.6-0.8,7.2-1.6,10.8-1.6
	c7.6,0,14.3,2,20.7,6c6.4,4,9.6,11.6,9.6,23.5v39.5h-8.8c-2.4,0-4.8-0.8-6.4-2.4s-2.4-3.6-2.4-6.4V68.1c0-4-1.2-7.2-3.6-8.8
	c-2.4-2-5.2-2.8-8.4-2.8c-3.2,0-6,0.8-8.4,2.8c-2.4,2-3.6,4.8-3.6,8.8v43.4L319.7,111.6z M252,44.2v39.5c0,12-3.2,19.9-9.6,23.5
	s-13.2,5.6-20.7,5.6c-7.2-0.4-13.9-2.4-19.9-6c-6-3.6-9.2-11.6-9.2-23.1V44.2h17.9v43c0,4,1.2,7.2,3.6,8.8c2.2,1.9,5.1,2.9,8,2.8
	c3.2,0,6-0.8,8.4-2.8c2.4-2,3.6-4.8,3.6-8.8V52.6c0-2.4,0.8-4.4,2.4-6s3.6-2.4,6.4-2.4C242.8,44.2,252,44.2,252,44.2z M147.2,111.6
	V78.9c0-6.8,0.8-12,2.8-16.7c1.9-4.1,4.6-7.8,8-10.8c3.2-2.4,6.8-4.4,11.2-5.6c4.4-1.2,8.8-1.6,13.2-1.6h2.4v17.9h-6
	c-4.8,0-8.4,1.2-10.8,3.6c-2.4,2.4-3.6,6-3.6,11.2v34.7C164.3,111.6,147.2,111.6,147.2,111.6z"/>
<path class="st0" d="M45.1,54.6c-9.2,5.2-9.2,35.9,0,40.6c9.2,5.2,34.3-13.2,34.3-21.1C79.4,64.1,53.9,49.8,45.1,54.6z"/>
<g>
	<defs>
		<path id="SVGID_1_" d="M15.6,20.3c3.2-2,7.2-2.8,11.2-2.4c1.6-2,3.6-4,6-5.2c10.8-6,27.9-0.8,53,13.9
			c25.9,15.1,38.7,27.1,38.7,39.9c0,2.8-0.8,6-2,8.8c1.6,3.2,2.4,6,2,9.2c0,12.4-13.2,24.7-38.7,39.5s-42.2,19.9-53.4,13.9
			c-3.2-1.8-5.8-4.4-7.6-7.6c-3.6,0-6.8-0.8-9.6-2.4C4.5,121.5,0.1,104.4,0.1,74.5C0.5,43.4,4.5,26.3,15.6,20.3z M34.8,34.3
			c-17.9,10-17.9,71.3,0,81.3c18.3,10.8,67.7-25.9,68.1-41.4C102.9,53.4,52.3,24.7,34.8,34.3z"/>
	</defs>
	<clipPath id="SVGID_00000023251921817823311810000003168572637035163015_">
		<use xlink:href="#SVGID_1_"  style="overflow:visible;"/>
	</clipPath>
	<g style="clip-path:url(#SVGID_00000023251921817823311810000003168572637035163015_);">
		
			<linearGradient id="SVGID_00000011023254717003373740000007525778649093824641_" gradientUnits="userSpaceOnUse" x1="87.612" y1="49.1164" x2="106.7407" y2="101.7202" gradientTransform="matrix(0.9939 2.784000e-02 1.545000e-02 -0.9862 -13.2168 145.821)">
			<stop  offset="0.3" style="stop-color:#74A441;stop-opacity:0"/>
			<stop  offset="1" style="stop-color:#4C771F"/>
		</linearGradient>
		<path style="fill:url(#SVGID_00000011023254717003373740000007525778649093824641_);" d="M101.7,74.5c0,7.2-8.4,15.1-17.5,22.7
			l21.1,14.3c12.8-9.6,19.5-17.9,19.5-27.1c0-2.4-0.4-5.2-1.6-7.6C114.5,56.6,79,39.8,54.3,34.3C76.6,40.6,102.1,59.8,101.7,74.5z"
			/>
	</g>
</g>
<g>
	<defs>
		<path id="SVGID_00000016784626441891792400000001574500187882691518_" d="M15.6,20.3c3.2-2,7.2-2.8,11.2-2.4c1.6-2,3.6-4,6-5.2
			c10.8-6,27.9-0.8,53,13.9c25.9,15.1,38.7,27.1,38.7,39.9c0,2.8-0.8,6-2,8.8c1.6,3.2,2.4,6,2,9.2c0,12.4-13.2,24.7-38.7,39.5
			s-42.2,19.9-53.4,13.9c-3.2-1.8-5.8-4.4-7.6-7.6c-3.6,0-6.8-0.8-9.6-2.4C4.5,121.5,0.1,104.4,0.1,74.5
			C0.5,43.4,4.5,26.3,15.6,20.3z M34.8,34.3c-17.9,10-17.9,71.3,0,81.3c18.3,10.8,67.7-25.9,68.1-41.4
			C102.9,53.4,52.3,24.7,34.8,34.3z"/>
	</defs>
	<clipPath id="SVGID_00000083796661774488338280000011096291633946668420_">
		<use xlink:href="#SVGID_00000016784626441891792400000001574500187882691518_"  style="overflow:visible;"/>
	</clipPath>
	<g style="clip-path:url(#SVGID_00000083796661774488338280000011096291633946668420_);">
		
			<linearGradient id="SVGID_00000065045128936402968660000005421784297057517727_" gradientUnits="userSpaceOnUse" x1="549.0927" y1="1033.3455" x2="562.2437" y2="1096.7092" gradientTransform="matrix(-0.5069 0.8385 0.8387 0.511 -570.6859 -910.5735)">
			<stop  offset="0.3" style="stop-color:#74A441;stop-opacity:0"/>
			<stop  offset="1" style="stop-color:#4C771F"/>
		</linearGradient>
		<path style="fill:url(#SVGID_00000065045128936402968660000005421784297057517727_);" d="M33.2,112.4c-6-3.6-8.8-14.7-10.8-26.3
			L-0.3,96.8c2,15.9,6,25.9,13.5,30.3c2,1.2,4.8,2,7.2,2.4c21.5,3.2,53.4-19.1,70.1-37.5C75,108,45.9,119.9,33.2,112.4z"/>
	</g>
</g>
<g>
	<defs>
		<path id="SVGID_00000057861302706744753250000001664289447329347504_" d="M15.6,20.3c3.2-2,7.2-2.8,11.2-2.4c1.6-2,3.6-4,6-5.2
			c10.8-6,27.9-0.8,53,13.9c25.9,15.1,38.7,27.1,38.7,39.9c0,2.8-0.8,6-2,8.8c1.6,3.2,2.4,6,2,9.2c0,12.4-13.2,24.7-38.7,39.5
			s-42.2,19.9-53.4,13.9c-3.2-1.8-5.8-4.4-7.6-7.6c-3.6,0-6.8-0.8-9.6-2.4C4.5,121.5,0.1,104.4,0.1,74.5
			C0.5,43.4,4.5,26.3,15.6,20.3z M34.8,34.3c-17.9,10-17.9,71.3,0,81.3c18.3,10.8,67.7-25.9,68.1-41.4
			C102.9,53.4,52.3,24.7,34.8,34.3z"/>
	</defs>
	<clipPath id="SVGID_00000006703728715945495450000016504301426996180152_">
		<use xlink:href="#SVGID_00000057861302706744753250000001664289447329347504_"  style="overflow:visible;"/>
	</clipPath>
	<g style="clip-path:url(#SVGID_00000006703728715945495450000016504301426996180152_);">
		
			<linearGradient id="SVGID_00000160157592867601180590000009406314538685620355_" gradientUnits="userSpaceOnUse" x1="73.3678" y1="113.921" x2="10.8011" y2="90.8072" gradientTransform="matrix(1 0 0 -1 0 152)">
			<stop  offset="0.3" style="stop-color:#74A441;stop-opacity:0"/>
			<stop  offset="1" style="stop-color:#4C771F"/>
		</linearGradient>
		<path style="fill:url(#SVGID_00000160157592867601180590000009406314538685620355_);" d="M34.8,34.3c6.4-3.6,16.7-2,27.5,2
			l3.2-20.3c-14.3-6.4-25.1-7.6-32.7-3.6c-2.4,1.2-4,2.8-6,5.2c-13.2,17.5-10,55.8-2.8,79.7C18.4,74.9,22,41.4,34.8,34.3z"/>
	</g>
</g>
</svg>
