<?xml version="1.0" encoding="utf-8"?>
<!-- Generator: Adobe Illustrator 26.0.2, SVG Export Plug-In . SVG Version: 6.00 Build 0)  -->
<svg version="1.1" id="Layer_1" xmlns="http://www.w3.org/2000/svg" xmlns:xlink="http://www.w3.org/1999/xlink" x="0px" y="0px"
	 viewBox="0 0 393.8 150" style="enable-background:new 0 0 393.8 150;" xml:space="preserve">
<style type="text/css">
	.st0{clip-path:url(#SVGID_00000173853931863361613540000017334989584598176427_);}
	.st1{fill:#FFFFFF;}
	.st2{fill:#404DB2;}
	.st3{fill:#3FE0E0;}
	.st4{fill:#FF4B3C;}
	.st5{fill:#FAE621;}
	.st6{fill:#FFCD42;}
	.st7{fill:#12D11C;}
</style>
<g>
	<g>
		<defs>
			<rect id="SVGID_1_" x="0.2" y="20" width="393.8" height="110"/>
		</defs>
		<clipPath id="SVGID_00000181080360539387479420000003850994497316835978_">
			<use xlink:href="#SVGID_1_"  style="overflow:visible;"/>
		</clipPath>
		<g style="clip-path:url(#SVGID_00000181080360539387479420000003850994497316835978_);">
			<g>
				<path class="st1" d="M0.2,60.1l7.1-8.4c4.5,3.6,9.6,5.5,14.7,5.5c3.3,0,5.2-1.2,5.2-3.2v-0.2c0-1.9-1.4-2.9-7.7-4.3
					C9.8,47.3,2.4,44.6,2.4,35.2V35c0-8.5,6.7-14.6,17.6-14.6c7.8,0,13.7,2,18.8,6.1l-6.3,9c-4.2-2.9-8.6-4.5-12.7-4.5
					c-3,0-4.5,1.3-4.5,2.9V34c0,2,1.6,3,7.8,4.5C33.5,40.8,40,44.2,40,52.6c0,9.2-7.4,14.9-18.4,14.9C13.5,67.5,5.9,65,0.2,60.1z"/>
				<path class="st1" d="M45.1,44.2c0-13.5,10.2-23.9,24-23.9c9.2,0,15.3,3.9,19.4,9.6L79,37.2c-2.6-3.2-5.7-5.3-10-5.3
					c-6.3,0-10.8,5.3-10.8,12v0.2c0,6.8,4.5,12.1,10.8,12.1c4.7,0,7.5-2.2,10.2-5.5l9.6,6.8c-4.3,5.9-10.2,10.2-20.2,10.2
					C55.5,67.7,45.1,57.7,45.1,44.2z"/>
				<path class="st1" d="M94.9,21.3h12.6v17h16.2v-17h12.6v45.5h-12.6V49.5h-16.2v17.3H94.9C94.9,66.8,94.9,21.3,94.9,21.3z"/>
				<path class="st1" d="M143.5,44.2c0-13.1,10.6-23.9,24.5-23.9c14,0,24.5,10.6,24.5,23.5V44c0,13-10.6,23.7-24.5,23.7
					S143.5,57.1,143.5,44.2z M179.6,44.2c0-6.7-4.7-12.4-11.7-12.4s-11.6,5.7-11.6,12.1V44c0,6.5,4.7,12.3,11.7,12.3
					C174.9,56.3,179.6,50.7,179.6,44.2z"/>
				<path class="st1" d="M198,44.2c0-13.1,10.6-23.9,24.5-23.9S247,30.7,247,43.8V44c0,13-10.6,23.7-24.5,23.7S198,57.1,198,44.2z
					 M234.3,44.2c0-6.7-4.7-12.4-11.7-12.4s-11.6,5.7-11.6,12.1V44c0,6.5,4.7,12.3,11.7,12.3C229.8,56.3,234.3,50.7,234.3,44.2z"/>
				<path class="st1" d="M254.5,21.3h12.6v34.4h22.1v11h-34.7V21.3z"/>
			</g>
			<g>
				<path class="st1" d="M1.9,106c0-13.3,10.5-23.7,24.6-23.7s24.4,10.5,24.4,23.4v0.3c0,13-10.5,23.7-24.6,23.7S1.9,119,1.9,106z
					 M38.1,106c0-6.8-4.7-12.4-11.6-12.4s-11.6,5.6-11.6,12.1v0.3c0,6.5,4.7,12.4,11.6,12.4C33.5,118.3,38.1,112.5,38.1,106z"/>
				<path class="st1" d="M58.2,83.2h36.5v11.2H70.9v7.7h21.6v10.5H70.9v16.2H58.3V83.2H58.2z"/>
			</g>
			<g>
				<path class="st1" d="M120.9,83.3h13.3l10.8,17.6l10.8-17.6h13.3v45.5h-12.6v-26.1l-11.4,17.8h-0.3l-11.6-17.6v26H121L120.9,83.3
					L120.9,83.3z"/>
				<path class="st1" d="M176.6,106.2c0-13.1,10.6-23.9,24.5-23.9c14,0,24.5,10.4,24.5,23.5v0.2c0,13-10.6,23.7-24.5,23.7
					C187,129.7,176.6,119.1,176.6,106.2z M212.8,106.2c0-6.7-4.7-12.4-11.7-12.4c-6.9,0-11.6,5.7-11.6,12.1v0.2
					c0,6.5,4.7,12.3,11.7,12.3S212.8,112.6,212.8,106.2z"/>
				<path class="st1" d="M241.9,94.3h-13.6v-11h39.9v11h-13.6v34.4h-12.6V94.3L241.9,94.3z"/>
				<path class="st1" d="M274.8,83.3h12.7v45.5h-12.7V83.3z"/>
				<path class="st1" d="M294.8,106.2c0-13.1,10.6-23.9,24.5-23.9c14,0,24.5,10.4,24.5,23.5v0.2c0,13-10.6,23.7-24.5,23.7
					S294.8,119.1,294.8,106.2z M331,106.2c0-6.7-4.7-12.4-11.7-12.4c-6.9,0-11.6,5.7-11.6,12.1v0.2c0,6.5,4.7,12.3,11.7,12.3
					C326.4,118.3,331,112.6,331,106.2z"/>
				<path class="st1" d="M351.1,83.3h11.7l18.8,24v-24H394v45.5h-11l-19.5-25v25H351L351.1,83.3L351.1,83.3z"/>
			</g>
		</g>
	</g>
	<g>
		<path class="st2" d="M370.5,20l-11.8,23.2l11.8,23.4h7.7H394L370.5,20z"/>
		<path class="st3" d="M358.7,43.2L347,66.5L358.7,43.2z"/>
		<path class="st3" d="M347,66.5h23.6l-11.8-23.4L347,66.5z"/>
		<path class="st4" d="M323.4,20L323.4,20l-23.6,46.4v0.1h15.7h8l11.8-23.2L323.4,20z"/>
		<path class="st5" d="M335.6,44.3l11.3,22.2h0.1L335.6,44.3z"/>
		<path class="st6" d="M335.2,43.4l-11.8,23.2h23.4L335.2,43.4z"/>
		<path class="st7" d="M347,20l-11.8,23.4L347,66.5l11.8-23.4L347,20z"/>
	</g>
</g>
</svg>
