<?xml version="1.0" encoding="utf-8"?>
<!-- Generator: Adobe Illustrator 26.0.2, SVG Export Plug-In . SVG Version: 6.00 Build 0)  -->
<svg version="1.1" id="Layer_1" xmlns="http://www.w3.org/2000/svg" xmlns:xlink="http://www.w3.org/1999/xlink" x="0px" y="0px"
	 viewBox="0 0 251.8 150" style="enable-background:new 0 0 251.8 150;" xml:space="preserve">
<style type="text/css">
	.st0{clip-path:url(#SVGID_00000181767068374611779140000009040467076283850410_);fill:#FFFFFF;}
	.st1{clip-path:url(#SVGID_00000016779996874086028110000010845235110681457320_);fill:#00FF84;}
	.st2{clip-path:url(#SVGID_00000089537656096936993530000018176008407335753632_);fill:#FFFFFF;}
</style>
<g>
	<g>
		<defs>
			<rect id="SVGID_1_" x="0" width="251.8" height="150"/>
		</defs>
		<clipPath id="SVGID_00000031181982750709385670000018077857651260439738_">
			<use xlink:href="#SVGID_1_"  style="overflow:visible;"/>
		</clipPath>
		<path style="clip-path:url(#SVGID_00000031181982750709385670000018077857651260439738_);fill:#FFFFFF;" d="M73.1,69.3L59.7,50.1
			v19.1H45.9V25.3h13.8v18.6l13.7-18.5h16.3L73,46.2l17.1,23.1H73.1z"/>
	</g>
	<g>
		<defs>
			<rect id="SVGID_00000045612357046918237230000011045838837536340907_" x="0" width="251.8" height="150"/>
		</defs>
		<clipPath id="SVGID_00000165218094040863433260000018053440898984553093_">
			<use xlink:href="#SVGID_00000045612357046918237230000011045838837536340907_"  style="overflow:visible;"/>
		</clipPath>
		<path style="clip-path:url(#SVGID_00000165218094040863433260000018053440898984553093_);fill:#00FF84;" d="M243.7,127.2
			c4.4,0,8.1-3.6,8.1-8.1s-3.6-8.1-8.1-8.1c-4.4,0-8.1,3.6-8.1,8.1C235.7,123.5,239.3,127.2,243.7,127.2z M102.6,18.6
			c4.4,0,8.1-3.6,8.1-8.1s-3.6-8.1-8.1-8.1s-8.1,3.6-8.1,8.1C94.6,15.1,98.2,18.6,102.6,18.6z"/>
	</g>
	<g>
		<defs>
			<rect id="SVGID_00000053521680368181222890000007515905608688863166_" x="0" width="251.8" height="150"/>
		</defs>
		<clipPath id="SVGID_00000102511877192996740390000002395305010264520593_">
			<use xlink:href="#SVGID_00000053521680368181222890000007515905608688863166_"  style="overflow:visible;"/>
		</clipPath>
		<path style="clip-path:url(#SVGID_00000102511877192996740390000002395305010264520593_);fill:#FFFFFF;" d="M109.5,25.3H95.7v44
			h13.8V25.3z M95.5,104.2c0-13.2,8.1-23.1,20.9-23.1c6.4,0,11.3,2.9,13.7,7.5v-6.2h13.8v43.9h-13.8V120c-2.4,4.3-7.8,7.4-14,7.4
			C103.1,127.4,95.5,117.5,95.5,104.2z M130.6,104.2c0-6.2-3.5-11.5-10.4-11.5c-6.5,0-10.4,4.9-10.4,11.5c0,6.7,4,11.6,10.4,11.6
			C127,115.8,130.6,110.6,130.6,104.2z M151.9,82.4h14v9.2c1.6-6.6,6.7-9.9,12.1-9.9c1.6,0,2.5,0.1,3.6,0.3l-0.1,12.9
			c-1.6-0.2-2.4-0.2-4.1-0.2c-7.6,0-11.6,4.9-11.6,14.6v16.9h-14V82.4z M184.5,104.2c0-14.4,9.4-23.1,23.7-23.1
			c13.6,0,22.9,8.5,22.9,20.9c0,2.3-0.1,3.6-0.3,6.1h-32.4c0.2,5.8,4.1,8.8,10.3,8.8c4.3,0,7-1.1,8.2-3.9h13.6
			c-1.4,8.6-10.2,14.4-21.9,14.4C193.7,127.4,184.5,118.9,184.5,104.2z M217.3,99.5c-0.1-5.8-3.4-9-9.3-9c-6,0-9.6,3.5-9.8,9H217.3z
			 M131.5,56.3v-31h-14v44h33.8v-13H131.5z M172.8,56.3v-31h-14v44h33.8v-13H172.8z M76.3,82.4v15.8H59.6V82.4H46v44h13.6v-15.5
			h16.7v15.5h13.6v-44H76.3z M28.8,100.2l-8.5-2.4c-2.8-0.9-3.9-2.2-3.9-3.9c0-1.9,1.6-3.1,3.5-3.3c2.8-0.3,5.1,0.9,5.1,4v0.2h14.6
			v-0.2l0,0c0-8.7-7.4-13.6-19.7-13.6C8.6,81,1.1,86.4,1.1,94.8c0,6.7,4,11.1,11,12.8l8.7,2.2c2.6,0.8,3.6,2.2,3.6,4.1
			c0,2.2-2.2,3.4-4.4,3.5c-3.3,0.1-5.7-1.6-5.8-4.4H0c0.2,8.4,8.4,14.3,20.8,14.3c11.7,0,19.2-5.3,19.2-14.5
			C39.9,106.2,35.7,102,28.8,100.2z M28.8,43.2l-8.5-2.4c-2.8-0.9-3.9-2.2-3.9-3.9c0-1.9,1.6-3.1,3.5-3.3c2.8-0.3,5.1,0.9,5.1,4v0.2
			h14.6v-0.2l0,0c0-8.7-7.4-13.6-19.7-13.6c-11.3,0-18.8,5.4-18.8,13.8c0,6.7,4,11.1,11,12.8l8.7,2.2c2.6,0.8,3.6,2.2,3.6,4.1
			c0,2.2-2.2,3.4-4.4,3.5c-3.3,0.1-5.7-1.6-5.8-4.4H0c0.2,8.4,8.4,14.3,20.8,14.3c11.7,0,19.2-5.3,19.2-14.5
			C39.9,49.2,35.7,45,28.8,43.2z"/>
	</g>
</g>
</svg>
