<?xml version="1.0" encoding="utf-8"?>
<!-- Generator: Adobe Illustrator 26.0.2, SVG Export Plug-In . SVG Version: 6.00 Build 0)  -->
<svg version="1.1" id="Layer_1" xmlns="http://www.w3.org/2000/svg" xmlns:xlink="http://www.w3.org/1999/xlink" x="0px" y="0px"
	 viewBox="0 0 482 150" style="enable-background:new 0 0 482 150;" xml:space="preserve">
<style type="text/css">
	.st0{fill:#1ED760;}
</style>
<path class="st0" d="M65,10C29.1,10,0,39.1,0,75s29.1,65,65,65s65-29.1,65-65C130.1,39.1,100.8,10,65,10L65,10z M94.9,103.7
	c-1.2,2-3.7,2.5-5.6,1.3c-15.2-9.3-34.6-11.5-57.1-6.3c-2.2,0.5-4.3-0.8-4.8-3c-0.5-2.2,0.8-4.4,3-4.8c24.7-5.7,46-3.3,63.2,7.3
	C95.4,99.3,96.1,101.8,94.9,103.7z M102.8,86c-1.4,2.5-4.7,3.1-6.9,1.7C78.5,77,51.9,73.8,31.2,80.1c-2.7,0.8-5.6-0.8-6.3-3.4
	c-0.8-2.7,0.8-5.4,3.4-6.3c23.6-7.2,53.1-3.7,73,8.6C103.6,80.4,104.2,83.7,102.8,86L102.8,86z M103.6,67.6C82.6,55,48.1,54.1,28,60
	c-3.3,0.9-6.6-0.8-7.6-4s0.8-6.6,4-7.6c23-6.9,61.2-5.7,85.2,8.7c3,1.7,3.9,5.4,2.1,8.3C110.1,68.4,106.4,69.3,103.6,67.6
	L103.6,67.6z M178.9,67.3c-14.2-3.3-16.6-5.7-16.6-10.8c0-4.7,4.4-7.8,10.9-7.8c6.4,0,12.7,2.4,19.4,7.4c0.2,0.2,0.4,0.2,0.7,0.2
	s0.4-0.2,0.6-0.4l6.9-9.8c0.3-0.4,0.2-1-0.2-1.3c-7.9-6.4-16.7-9.3-27.2-9.3c-15.2,0-25.8,9.1-25.8,22.2c0,14.1,9.1,19,25.1,22.9
	c13.4,3.1,15.8,5.7,15.8,10.3c0,5.2-4.6,8.4-12,8.4c-8.2,0-15-2.8-22.4-9.2c-0.2-0.2-0.4-0.2-0.7-0.2c-0.2,0-0.4,0.1-0.6,0.3
	l-7.7,9.1c-0.3,0.4-0.3,1,0.1,1.3c8.8,7.8,19.6,11.9,31.1,11.9c16.4,0,27.1-9,27.1-22.9C203.1,78,196.2,71.6,178.9,67.3L178.9,67.3z
	 M240.4,53.4c-7.1,0-13,2.9-17.8,8.6v-6.5c0-0.4-0.4-0.9-0.9-0.9h-12.6c-0.4,0-0.9,0.4-0.9,0.9v71.9c0,0.4,0.4,0.9,0.9,0.9h12.6
	c0.4,0,0.9-0.4,0.9-0.9v-22.7c4.7,5.4,10.7,8,17.8,8c13.2,0,26.6-10.1,26.6-29.7C266.9,63.7,253.5,53.4,240.4,53.4L240.4,53.4
	L240.4,53.4z M252.3,83.1c0,9.9-6.1,16.8-14.8,16.8s-15.2-7.3-15.2-16.8s6.5-16.8,15.2-16.8C246,66.3,252.3,73.4,252.3,83.1
	L252.3,83.1z M301.3,53.4c-17,0-30.4,13.1-30.4,29.9c0,16.6,13.3,29.6,30.1,29.6c17,0,30.5-13.1,30.5-29.8
	C331.6,66.5,318.3,53.4,301.3,53.4L301.3,53.4z M301.3,100c-9.1,0-15.9-7.4-15.9-16.9c0-9.7,6.6-16.7,15.7-16.7s16.1,7.4,16.1,16.9
	C316.9,93,310.3,100,301.3,100z M367.9,54.6H354V40.3c0-0.4-0.4-0.9-0.9-0.9h-12.6c-0.4,0-1,0.4-1,0.9v14.3h-6.1
	c-0.4,0-0.9,0.4-0.9,0.9v10.9c0,0.4,0.4,0.9,0.9,0.9h6.1v28.2c0,11.3,5.6,17.1,16.8,17.1c4.5,0,8.2-1,11.8-3
	c0.3-0.2,0.4-0.4,0.4-0.8V98.4c0-0.3-0.2-0.6-0.4-0.8c-0.3-0.2-0.6-0.2-0.9,0c-2.4,1.2-4.7,1.8-7.4,1.8c-4,0-5.8-1.9-5.8-5.9V67.2
	h13.9c0.4,0,0.9-0.4,0.9-0.9V55.5C368.9,55,368.4,54.6,367.9,54.6L367.9,54.6L367.9,54.6z M416.4,54.7v-1.8c0-5.2,2-7.4,6.4-7.4
	c2.6,0,4.7,0.4,7.1,1.3c0.3,0.1,0.5,0,0.9-0.1c0.2-0.2,0.4-0.4,0.4-0.8V35.3c0-0.4-0.3-0.8-0.7-0.9c-2.5-0.8-5.6-1.4-10.6-1.4
	c-11.8,0-17.8,6.5-17.8,19v2.6h-6c-0.4,0-1,0.4-1,0.9v10.9c0,0.4,0.4,0.9,1,0.9h6v43.3c0,0.4,0.4,0.9,1,0.9h12.5c0.4,0,1-0.4,1-0.9
	V67.2h11.8l18,43.3c-2.1,4.6-4.1,5.5-6.8,5.5c-2.2,0-4.6-0.7-6.9-2c-0.2-0.1-0.4-0.1-0.8-0.1c-0.2,0.1-0.4,0.3-0.5,0.4l-4.3,9.3
	c-0.2,0.4,0,1,0.4,1.2c4.5,2.4,8.5,3.4,13.4,3.4c9.4,0,14.5-4.4,19-16.1l22-56.6c0.1-0.3,0.1-0.6-0.1-0.9c-0.2-0.3-0.4-0.4-0.8-0.4
	h-13.2c-0.4,0-0.8,0.3-0.9,0.5l-13.4,38.5l-14.6-38.4c-0.1-0.4-0.4-0.5-0.9-0.5L416.4,54.7L416.4,54.7L416.4,54.7z M388.2,54.6
	h-12.6c-0.4,0-1,0.4-1,0.9v55.1c0,0.4,0.4,0.9,1,0.9h12.6c0.4,0,1-0.4,1-0.9v-55C389.1,55,388.8,54.6,388.2,54.6L388.2,54.6z
	 M382.1,29.5c-5,0-9.1,4.1-9.1,9.1s4.1,9.1,9.1,9.1s9.1-4.1,9.1-9.1C391.1,33.5,387,29.5,382.1,29.5z"/>
</svg>
