<?xml version="1.0" encoding="utf-8"?>
<!-- Generator: Adobe Illustrator 26.0.2, SVG Export Plug-In . SVG Version: 6.00 Build 0)  -->
<svg version="1.1" id="Logo" xmlns="http://www.w3.org/2000/svg" xmlns:xlink="http://www.w3.org/1999/xlink" x="0px" y="0px"
	 viewBox="0 0 135.4 150" style="enable-background:new 0 0 135.4 150;" xml:space="preserve">
<style type="text/css">
	.st0{fill:#1D9BF0;}
</style>
<g id="Logo_1_">
	<path id="white_background" class="st0" d="M121.6,46.9c0.1,1.2,0.1,2.4,0.1,3.6c0,36.7-27.9,79-79,79v0
		c-15.1,0-29.9-4.3-42.6-12.5c2.2,0.3,4.4,0.4,6.6,0.4c12.5,0,24.7-4.2,34.5-11.9c-11.9-0.2-22.3-8-25.9-19.3
		c4.2,0.8,8.5,0.6,12.5-0.5c-13-2.6-22.3-14-22.3-27.2c0-0.1,0-0.2,0-0.4c3.9,2.2,8.2,3.3,12.6,3.5c-12.2-8.2-16-24.4-8.6-37.1
		c14.1,17.4,34.9,27.9,57.2,29c-2.2-9.6,0.8-19.8,8-26.5c11.2-10.5,28.8-10,39.3,1.2c6.2-1.2,12.2-3.5,17.6-6.7
		c-2.1,6.4-6.4,11.9-12.2,15.4c5.5-0.6,10.9-2.1,15.9-4.4C131.7,38.1,127,43,121.6,46.9z"/>
</g>
</svg>
