<?xml version="1.0" encoding="utf-8"?>
<!-- Generator: Adobe Illustrator 26.0.2, SVG Export Plug-In . SVG Version: 6.00 Build 0)  -->
<svg version="1.1" id="Layer_1" xmlns="http://www.w3.org/2000/svg" xmlns:xlink="http://www.w3.org/1999/xlink" x="0px" y="0px"
	 viewBox="0 0 360.1 150" style="enable-background:new 0 0 360.1 150;" xml:space="preserve">
<style type="text/css">
	.st0{fill:#FFFFFF;}
	.st1{fill:#9146FF;}
</style>
<g id="Layer_2_00000137854796558915373640000015716916098642472373_">
	<g id="Layer_1-2">
		<polygon class="st0" points="53.7,68.7 31.6,68.7 31.6,75 53.7,75 53.7,100.3 19,100.3 6.4,87.7 6.4,21.3 31.6,21.3 31.6,43.5 
			53.7,43.5 		"/>
		<polygon class="st0" points="148.5,100.3 72.7,100.3 60.1,87.7 60.1,43.5 85.4,43.5 85.4,75 91.6,75 91.6,43.5 116.9,43.5 
			116.9,75 123.2,75 123.2,43.5 148.5,43.5 		"/>
		<rect x="154.7" y="43.5" class="st0" width="25.3" height="56.8"/>
		<rect x="154.7" y="21.3" class="st0" width="25.3" height="15.8"/>
		<polygon class="st0" points="233.7,68.7 211.6,68.7 211.6,75 233.7,75 233.7,100.3 199,100.3 186.4,87.7 186.4,21.3 211.6,21.3 
			211.6,43.5 233.7,43.5 		"/>
		<polygon class="st0" points="290.6,68.7 265.4,68.7 265.4,75 290.6,75 290.6,100.3 252.7,100.3 240.1,87.7 240.1,56 252.7,43.5 
			290.6,43.5 		"/>
		<polygon class="st0" points="353.7,100.3 328.5,100.3 328.5,68.7 322.2,68.7 322.2,100.3 296.9,100.3 296.9,21.3 322.2,21.3 
			322.2,43.5 341.1,43.5 353.7,56 		"/>
		<path class="st1" d="M344.2,37.1h-15.8V15h-34.7l-15.9,22.1h-28.4l-9.5,9.5v-9.5h-22.1V15h-69.5v22.1H50.8L34.7,15H0.1v75.8
			L44.2,135h44.2v-12.7l12.7,12.7h85.3v-12.7L199,135h41v-12.7l12.7,12.7h79l28.5-28.5V52.9L344.2,37.1z M53.7,68.7H31.6V75h22.1
			v25.3H19L6.4,87.7V21.3h25.3v22.1h22.1v25.2H53.7z M148.5,100.3H72.7L60.1,87.7V43.5h25.3V75h6.3V43.5H117V75h6.3V43.5h25.3v56.8
			H148.5z M180.1,100.3h-25.3V43.5h25.3V100.3z M180.1,37.1h-25.3V21.3h25.3V37.1z M233.7,68.7h-22.1V75h22.1v25.3H199l-12.7-12.7
			V21.3h25.3v22.1h22.1v25.2H233.7z M290.6,68.7h-25.3V75h25.3v25.3h-37.9l-12.7-12.7V56l12.7-12.7h37.9L290.6,68.7L290.6,68.7z
			 M353.7,100.3h-25.3V68.7h-6.3v31.5h-25.3V21.3h25.3v22.1h19l12.7,12.7V100.3z"/>
	</g>
</g>
</svg>
