<?xml version="1.0" encoding="utf-8"?>
<!-- Generator: Adobe Illustrator 26.0.2, SVG Export Plug-In . SVG Version: 6.00 Build 0)  -->
<svg version="1.1" id="Layer_1" xmlns="http://www.w3.org/2000/svg" xmlns:xlink="http://www.w3.org/1999/xlink" x="0px" y="0px"
	 viewBox="0 0 332.5 150" style="enable-background:new 0 0 332.5 150;" xml:space="preserve">
<style type="text/css">
	.st0{fill:#A435F0;}
	.st1{fill:#FFFFFF;}
</style>
<g>
	<path class="st0" d="M51.4,41.3L25.5,26.4L-0.3,41.3V26.4l25.8-14.9l25.8,14.9L51.4,41.3L51.4,41.3z"/>
	<path class="st1" d="M-0.3,53.8h13.5v32.9c0,8.5,6.3,12.6,12.3,12.6s12.3-4.2,12.3-12.7V53.8h13.5v33.7c0,7.8-2.5,13.9-7.4,18
		s-11.1,6.2-18.6,6.2s-13.6-2-18.4-6.2c-4.8-4.1-7.3-9.9-7.3-17.7C-0.3,87.8-0.3,53.8-0.3,53.8z M168.3,94.7
		c-4.1,3.6-8.8,5.4-14.1,5.4c-9.7,0-16.2-5.5-16.9-14.1H181c0,0,0.3-2.8,0.3-5.4c0-8.1-2.6-14.8-7.8-20.2c-5.1-5.5-11.8-8.2-20-8.2
		c-8.6,0-15.7,2.7-21.2,8.2S124,73,124,82v0.4c0,8.8,2.8,15.9,8.3,21.1c5.5,5.3,12.7,7.9,21.6,7.9c10.3,0,18.4-4.1,24.6-11
		C178.4,100.5,168.3,94.7,168.3,94.7z M142.6,67.3c3-2.3,6.7-3.6,10.8-3.6c3.9,0,7.2,1.2,10,3.7c2.7,2.2,4.1,5,4.2,8.2h-30
		C138.1,72.3,139.7,69.5,142.6,67.3L142.6,67.3z M304.5,119.1c-5.5,13-11.2,17.4-20,17.4h-6.1v-12h4.9c3,0,5.8-1.1,8.5-7.3l2.7-6.2
		l-23.1-57.1h13.8L301.6,95l16.9-41.1h13.8L304.5,119.1L304.5,119.1z M104,32.3V59c-4.4-4-11.3-6.3-18-6.3c-7.9,0-14.6,2.8-20.1,8.5
		c-5.4,5.6-8.1,12.5-8.1,20.9s2.7,15.3,8.1,21c5.5,5.6,12.2,8.4,20.1,8.4c9.2,0,14.9-3.6,18-6.4v5.2h13.4v-78H104L104,32.3z
		 M100,94.3c-3.2,3.2-7.4,4.9-12.2,4.9s-8.7-1.7-12-4.9c-3.1-3.2-4.7-7.4-4.7-12.3s1.6-9.1,4.7-12.3c3.2-3.2,7.2-4.9,12-4.9
		s8.9,1.7,12.2,4.9c3.4,3.2,5,7.4,5,12.3C105.1,86.9,103.4,91.1,100,94.3z M250.5,52.7c-10.2,0-15.5,4.2-19.1,8.3
		c-1.5-2.8-5.5-8.3-15.1-8.3c-8.1,0-12.8,4.1-15.2,7v-5.9h-13.3v56.3h13.3V77.8c0-7.6,4.7-13.1,11-13.1c6.4,0,10.1,4.8,10.1,12.5v33
		h13.3V77.8c0-7.7,4.6-13.1,11.2-13.1c6.4,0,10.1,4.8,10.1,12.5v33h13.4V75.3C270.1,60.6,262.2,52.7,250.5,52.7L250.5,52.7z"/>
</g>
</svg>
