<?xml version="1.0" encoding="utf-8"?>
<!-- Generator: Adobe Illustrator 26.0.2, SVG Export Plug-In . SVG Version: 6.00 Build 0)  -->
<svg version="1.1" id="Layer_1" xmlns:v="https://vecta.io/nano"
	 xmlns="http://www.w3.org/2000/svg" xmlns:xlink="http://www.w3.org/1999/xlink" x="0px" y="0px" viewBox="0 0 497.1 150"
	 style="enable-background:new 0 0 497.1 150;" xml:space="preserve">
<style type="text/css">
	.st0{fill:#FF0000;}
	.st1{fill:#FFFFFF;}
</style>
<g>
	<path class="st0" d="M153.7,37.3c-1.9-6.8-7.1-12.1-14-14C127.6,20,78.5,20,78.5,20s-49.1,0.1-61.2,3.4c-6.8,1.9-12.1,7.2-14,14
		C-0.4,59-1.8,92.1,3.5,112.8c1.8,6.7,7.2,12.1,13.9,13.9c12.2,3.3,61.3,3.3,61.3,3.3s49.1,0,61.3-3.3c6.7-1.8,12.1-7.1,13.9-13.9
		C157.7,91.2,158.9,58.1,153.7,37.3z"/>
	<path class="st1" d="M62.9,98.5L103.6,75L62.9,51.5V98.5z"/>
	<g>
		<g>
			<path class="st1" d="M232.4,120.1c-3.1-2.1-5.4-5.4-6.7-9.8s-1.9-10.3-1.9-17.7v-9.9c0-7.4,0.7-13.4,2.2-17.8
				c1.5-4.5,3.9-7.8,7-9.8c3.2-2,7.4-3.1,12.5-3.1s9.1,1,12.2,3.1c3.1,2.1,5.4,5.4,6.7,9.8s2.1,10.3,2.1,17.7v10
				c0,7.4-0.7,13.2-2.1,17.7c-1.4,4.4-3.6,7.7-6.7,9.8c-3.1,2-7.4,3.1-12.6,3.1C239.8,123.3,235.6,122.1,232.4,120.1z M249.9,109.3
				c0.9-2.2,1.3-5.9,1.3-11V76.9c0-5-0.4-8.6-1.3-10.8c-0.9-2.3-2.4-3.4-4.5-3.4s-3.5,1.1-4.4,3.4s-1.3,5.8-1.3,10.8v21.4
				c0,5.1,0.4,8.8,1.2,11s2.3,3.3,4.5,3.3C247.5,112.6,249.1,111.5,249.9,109.3z M471.1,92.8v3.5l0.4,10c0.3,2.2,0.8,3.8,1.6,4.8
				c0.8,1,2.1,1.5,3.9,1.5c2.3,0,4-0.9,4.7-2.8c0.9-1.9,1.3-4.8,1.4-9l13.4,0.8c0.1,0.7,0.1,1.4,0.1,2.4c0,6.4-1.8,11.1-5.3,14.2
				s-8.4,4.7-14.7,4.7c-7.7,0-13-2.4-16.1-7.2c-3.1-4.7-4.6-12.2-4.6-22.2v-12c0.3-17.2,3.3-29.8,21.1-29.8c5.4,0,9.3,1,12.2,3
				c2.9,1.9,4.8,4.9,6.1,9.1c1.2,4.2,1.8,9.8,1.8,17.1v11.8L471.1,92.8L471.1,92.8z M473.1,63.8c-0.8,1-1.3,2.5-1.6,4.7
				c-0.3,2.2-0.4,10.1-0.4,10.1v5h11.4v-5c0,5-0.1-7.8-0.4-10.1c-0.3-2.3-0.8-4-1.7-4.8c-0.8-0.9-2-1.4-3.6-1.4
				C475.1,62.3,473.9,62.9,473.1,63.8z M194.7,91.5L177,27.7h15.4c0,0,7.1,32,9.7,47.1h0.4c2.9-16,9.9-47.1,9.9-47.1h15.4
				l-17.7,63.8v30.6h-15.3L194.7,91.5L194.7,91.5z"/>
			<path id="A" class="st1" d="M316.8,53.2v69h-12.1l-1.3-8.5h-0.3c-3.3,6.4-8.2,9.6-14.9,9.6c-11.9,0-13.2-10.1-13.3-18.6V53.2
				h15.5v50.6c0,3.1,0.3,5.3,1,6.6c1.4,2.9,5.2,2.1,7.1,0.7c1.2-0.8,2.1-1.9,2.8-3.1V53.2H316.8z"/>
			<path class="st1" d="M359.1,40.2h-15.4V122h-15.2V40.2h-15.4V27.8H359L359.1,40.2L359.1,40.2z M447.7,64.2
				c-0.9-4.3-2.4-7.5-4.5-9.5c-2.1-1.9-4.9-3-8.7-3c-2.9,0-5.6,0.8-7.9,2.4c-2.5,1.6-4.3,3.7-5.7,6.4h-0.1V24.3h-15v97.8h12.9
				l1.6-6.6h0.3c1.2,2.3,3.1,4.3,5.4,5.5c2.4,1.3,5.1,2,7.9,2c5.3,0,9.1-2.4,11.7-7.3c2.4-4.8,3.7-12.4,3.7-22.7V82.2
				C449.1,74.6,448.6,68.5,447.7,64.2z M433.5,92.4c0,5.1-0.2,9-0.7,11.8c-0.4,2.8-1.1,4.8-2.1,6s-2.3,1.9-4,1.9
				c-3.1-0.1-4.9-1.5-6.2-3.6V69.3c0.5-1.9,1.4-3.4,2.8-4.6c2.2-2.5,6-2.5,7.8,0c0.9,1.2,1.4,3.3,1.9,6.3c0.3,3,0.5,7,0.5,12.5
				L433.5,92.4C433.5,92.4,433.5,92.4,433.5,92.4z"/>
		</g>
		<g>
			<path id="A_00000085951048694337717060000012704678961275669433_" class="st1" d="M396.5,53.2v69h-12.1l-1.3-8.5h-0.3
				c-3.3,6.4-8.2,9.6-14.8,9.6c-11.9,0-13.2-10.1-13.3-18.6V53.2h15.5v50.6c0,3.1,0.3,5.3,1,6.6c1.4,2.9,5.2,2.1,7.2,0.7
				c1.2-0.8,2.1-1.9,2.8-3.1V53.2H396.5z"/>
		</g>
	</g>
</g>
</svg>
